<svg width="24" height="24" viewBox="0 0 24 24" fill="none" xmlns="http://www.w3.org/2000/svg">
<g clip-path="url(#clip0_266_15)">
<path d="M23.1891 3.67969C15.7125 1.94063 8.23594 5.8125 0.754687 4.06875C0.3375 3.975 0 4.21407 0 4.63125V19.3688C0 19.7859 0.3375 20.2219 0.754687 20.3203C8.23125 22.0594 15.7078 18.1875 23.1891 19.9313C23.6062 20.0297 23.9437 19.7906 23.9437 19.3734V4.63594C23.9437 4.21407 23.6062 3.77813 23.1891 3.67969Z" fill="#0B67B2"/>
<path d="M23.9437 4.63126C23.9437 4.21407 23.6062 3.77813 23.1891 3.67969C23.1422 3.67032 23.0906 3.65626 23.0437 3.64688L14.7141 8.71876V3.50626C12.8859 3.72657 11.0578 4.02657 9.22969 4.24688V8.66251L2.10937 4.32657C1.65937 4.26094 1.20937 4.17657 0.754687 4.06876C0.3375 3.97501 0 4.21407 0 4.63126V5.60626L6 9.25782H0V14.7422H6.27656L0 18.5625V19.3688C0 19.7859 0.3375 20.2219 0.754687 20.3203C0.895312 20.3531 1.03594 20.3813 1.17187 20.4094L9.225 15.5016V20.4891C11.0531 20.2688 12.8812 19.9688 14.7094 19.7484V15.4406L21.5953 19.6406C22.125 19.7109 22.6547 19.8047 23.1844 19.9313C23.6016 20.0297 23.9391 19.7906 23.9391 19.3734V18.5109L17.7562 14.7469H23.9391V9.26251H18.0328L23.9391 5.66719C23.9437 5.31563 23.9437 4.97344 23.9437 4.63126Z" fill="#FF473E"/>
<path d="M19.3547 15.1641L23.9437 17.9578V19.0547L17.5547 15.1641H15.15L22.8516 19.8562C22.0734 19.6922 21.2906 19.5891 20.5125 19.5281L15.1359 16.2562V19.7062C14.8547 19.7391 14.5734 19.7719 14.2922 19.8094V14.325H23.9437V15.1687H19.3547V15.1641ZM8.80781 20.5453C9.08906 20.5125 9.37031 20.4797 9.65156 20.4422V14.3203H0V15.1641H4.68281L0 18.0141V19.1109L6.48281 15.1641H8.80781V15.2109L0.548437 20.2406C0.614062 20.2734 0.684375 20.3016 0.754687 20.3203C1.125 20.4047 1.49531 20.4797 1.86562 20.5406L8.80781 16.3125V20.5453ZM0 8.83593V9.67968H9.65156V4.19531C9.37031 4.23281 9.08906 4.26562 8.80781 4.29843V7.86093L3.22031 4.45781C2.41406 4.38749 1.60781 4.27031 0.801562 4.08281L8.60625 8.83593H6.20156L0 5.05781V6.15468L4.40625 8.83593H0ZM15.1359 3.45468C14.8547 3.48749 14.5734 3.52031 14.2922 3.55781V9.67968H23.9437V8.83593H19.6312L23.9437 6.21093V5.11406L17.8312 8.83593H15.4266L23.5687 3.87656C23.4562 3.78281 23.3297 3.71249 23.1891 3.67968C22.9125 3.61406 22.6406 3.56249 22.3641 3.51093L15.1359 7.91249V3.45468Z" fill="#E8E8E8"/>
</g>
<defs>
<clipPath id="clip0_266_15">
<rect width="24" height="24" fill="white"/>
</clipPath>
</defs>
</svg>
