<svg width="24" height="24" viewBox="0 0 24 24" fill="none" xmlns="http://www.w3.org/2000/svg">
<path d="M11.999 2.01418C6.47622 2.01418 1.99902 6.49118 1.99902 12.0142C1.99902 13.6302 2.38582 15.1512 3.06612 16.5022C4.71152 19.7692 7.99512 22.0132 11.999 22.0142C17.5218 22.0152 21.999 17.5372 21.999 12.0142C21.999 6.49118 17.5218 2.01418 11.999 2.01418ZM11.999 4.01418C12.9309 4.01418 14.002 5.60317 14.535 7.94017C13.7259 7.99217 12.8786 8.01418 11.999 8.01418C11.1157 8.01418 10.2683 7.98117 9.45813 7.92717C9.99073 5.67717 11.0671 4.01418 11.999 4.01418ZM8.46382 4.83717C8.00792 5.67617 7.67292 6.74218 7.44542 7.74718C6.70562 7.64718 6.03592 7.50218 5.47242 7.35918C6.24792 6.29818 7.27922 5.40317 8.46382 4.83717ZM15.5485 4.83116C16.6351 5.39316 17.7309 6.28518 18.5236 7.37718C17.9607 7.51818 17.2724 7.64319 16.5365 7.74019C16.309 6.73519 15.9259 5.61816 15.5485 4.83116ZM4.52322 9.16417C5.28162 9.39517 6.06402 9.56718 7.11603 9.70818C7.02973 10.4692 6.99902 11.1992 6.99902 12.0142C6.99902 12.8292 7.03702 13.5722 7.12332 14.3332C6.05112 14.4772 5.27362 14.6172 4.50372 14.8512C4.15042 13.9482 3.99902 13.0422 3.99902 12.0142C3.99902 10.9862 4.16992 10.0672 4.52322 9.16417ZM19.4659 9.16917C19.8192 10.0722 19.999 10.9862 19.999 12.0142C19.999 13.0422 19.8266 13.9512 19.4733 14.8542C18.7055 14.6202 17.9285 14.4632 16.8604 14.3202C16.9445 13.5672 16.999 12.8182 16.999 12.0142C16.999 11.1992 16.9443 10.4552 16.858 9.69316C17.9076 9.54816 18.7073 9.39917 19.4659 9.16917ZM9.12692 9.90117C10.0538 9.96817 10.9877 10.0142 11.999 10.0142C13.0046 10.0142 13.9546 9.96818 14.8772 9.89818C14.9616 10.6012 14.999 11.2422 14.999 12.0142C14.999 12.7862 14.9721 13.4102 14.8878 14.1122C13.9621 14.0442 13.0071 14.0142 11.999 14.0142C10.9883 14.0142 10.0422 14.0502 9.11283 14.1192C9.02612 13.4082 8.99903 12.7982 8.99903 12.0142C8.99903 11.2422 9.04252 10.6032 9.12692 9.90117ZM11.999 16.0142C12.8773 16.0142 13.7195 16.0472 14.5283 16.0992C13.9657 18.4402 12.9349 20.0142 11.999 20.0142C11.0671 20.0142 10.0146 18.3642 9.43732 16.0972C10.2486 16.0432 11.1143 16.0142 11.999 16.0142ZM7.45003 16.2922C7.67742 17.2972 8.07322 18.4002 8.45062 19.1882C7.34342 18.6622 6.28032 17.7562 5.46982 16.6702C6.04282 16.5252 6.69152 16.3932 7.45003 16.2922ZM16.5395 16.2902C17.292 16.3882 17.9436 16.5302 18.5156 16.6732C17.791 17.6472 16.7272 18.6112 15.5584 19.1752C15.9847 18.3052 16.312 17.2952 16.5395 16.2902Z" fill="black"/>
</svg>
