<svg width="24" height="24" viewBox="0 0 24 24" fill="none" xmlns="http://www.w3.org/2000/svg">
<path d="M6.915 4.02999C4.947 4.02999 3.232 5.30999 2.044 7.14299C0.704 9.20799 0 11.883 0 14.449C0 15.155 0.07 15.818 0.21 16.422C0.278736 16.7143 0.367274 17.0017 0.475 17.282C0.578164 17.5452 0.702227 17.7996 0.846 18.043C1.542 19.202 2.664 19.97 4.439 19.97C5.936 19.97 7.072 19.299 8.404 17.526C9.164 16.514 9.548 15.9 11.067 13.206L11.823 11.867L12.009 11.542C12.07 11.642 12.13 11.738 12.192 11.842L14.344 15.437C15.068 16.647 16.009 17.993 16.814 18.751C17.86 19.738 18.806 19.971 19.874 19.971C20.949 19.971 21.75 19.616 22.329 19.128C22.6523 18.852 22.9262 18.523 23.139 18.155C23.681 17.216 24 16.028 24 14.41C24 11.69 23.319 9.05299 21.916 6.95999C20.634 5.04799 18.959 4.02999 17.2 4.02999C16.153 4.02999 15.112 4.49699 14.147 5.33799C13.495 5.90799 12.89 6.62799 12.327 7.38799C11.637 6.51299 10.992 5.84099 10.369 5.33199C9.187 4.36599 8.054 4.02899 6.915 4.02899V4.02999ZM17.075 6.08299C18.222 6.08299 19.263 6.84099 20.067 8.08199C21.199 9.82999 21.714 12.277 21.714 14.482C21.714 16.03 21.346 17.382 19.875 17.382C19.295 17.382 18.848 17.152 18.211 16.378C17.715 15.777 16.868 14.5 15.379 12.02L14.762 10.992C14.361 10.3212 13.9425 9.66096 13.507 9.01199C13.577 8.90299 13.648 8.78799 13.718 8.68499C14.838 7.01799 15.835 6.08299 17.075 6.08299ZM6.874 6.63599C8.139 6.63599 8.932 7.42699 9.549 8.08199C9.856 8.40899 10.286 8.95299 10.783 9.66099L9.763 11.227C9.006 12.39 7.881 14.244 6.926 15.565C5.735 17.214 5.116 17.382 4.44 17.382C3.916 17.382 3.402 17.145 3.057 16.588C2.794 16.162 2.593 15.458 2.593 14.542C2.593 12.321 3.223 10.007 4.253 8.45399C4.707 7.76699 5.217 7.22799 5.786 6.92099C6.11892 6.73599 6.49313 6.63796 6.874 6.63599Z" fill="#F1F1F1"/>
</svg>
