<svg width="24" height="17" viewBox="0 0 24 17" fill="none" xmlns="http://www.w3.org/2000/svg">
<path d="M16.484 8.48062L22.635 2.79852V14.0979L16.484 8.48062ZM8.558 9.44288L10.718 11.4365C11.057 11.7427 11.499 11.9277 11.982 11.9277H11.999H12.012C12.496 11.9277 12.938 11.7417 13.281 11.4333L13.278 11.4354L15.438 9.44181L22.004 15.4376H1.995L8.558 9.44288ZM1.986 1.45136H22.016L12.395 10.336C12.2868 10.427 12.1529 10.4765 12.015 10.4764H12.001H11.988C11.8496 10.4766 11.7152 10.4267 11.607 10.335L11.608 10.336L1.986 1.45136ZM1.365 2.79746L7.515 8.47956L1.365 14.0936V2.79746ZM22.965 0.202021C22.725 0.0744288 22.443 0 22.144 0H1.859C1.56916 7.36153e-05 1.28331 0.0717819 1.024 0.209464L1.035 0.204147C0.724573 0.366945 0.463148 0.618799 0.280254 0.931258C0.0973606 1.24372 0.000287348 1.60433 0 1.97236L0 14.9144C0.000529404 15.4382 0.196452 15.9404 0.54478 16.3108C0.893108 16.6811 1.36539 16.8894 1.858 16.89H22.141C22.6336 16.8894 23.1059 16.6811 23.4542 16.3108C23.8025 15.9404 23.9985 15.4382 23.999 14.9144V1.97236C23.999 1.19937 23.58 0.529507 22.97 0.207337L22.959 0.202021H22.965Z" fill="white"/>
</svg>
