<svg width="1077" height="230" viewBox="0 0 1077 230" fill="none" xmlns="http://www.w3.org/2000/svg">
<path fill-rule="evenodd" clip-rule="evenodd" d="M702.085 45.7849C622.552 111.699 630.656 106.47 601.485 110.686C587.453 112.714 575.249 113.42 574.366 112.255C573.483 111.092 564.617 103.931 554.664 96.3449L536.57 82.5507L514.528 104.699C502.408 116.877 472.065 143.609 447.098 164.101C348.172 245.294 355.108 240.875 319.867 245.18C305.118 246.983 304.378 246.692 283.748 231.026L262.688 215.034L221.696 257.791C188.562 292.347 174.111 304.946 146.325 323.487C127.417 336.101 90.02 365.143 63.2186 388.021C36.4172 410.898 10.3293 432.984 5.2455 437.101C-8.59668 448.308 0.887086 442.947 83.7053 392.746C154.896 349.595 162.278 344.284 204.842 305.591L250.168 264.385L259.48 274.881C279.726 297.705 280.843 299.685 276.494 304.997C274.291 307.683 273.827 309.104 275.462 308.151C277.098 307.2 289.807 299.594 303.703 291.252L328.973 276.087L334.176 282.449C337.039 285.947 339.381 290.396 339.381 292.335C339.381 294.274 325.001 311.002 307.422 329.507C289.843 348.012 280.392 359.187 286.418 354.344C292.444 349.498 316.709 329.975 340.345 310.961C363.98 291.947 384 276.387 384.832 276.387C385.668 276.387 382.549 286.65 377.902 299.191L369.456 321.995L394.765 295.513C435.084 253.318 456.653 229.211 472.214 208.949C480.191 198.56 487.879 190.047 489.3 190.032C493.81 189.985 553.124 239.442 553.284 243.382C553.367 245.459 549.972 253.922 545.742 262.187C539.305 274.757 538.886 276.896 543.188 275.263C549.446 272.886 562.355 280.704 562.355 286.868C562.355 290.384 560.978 290.061 555.847 285.329C544.324 274.701 538.057 280.036 547.745 292.223C554.884 301.204 550.962 302.716 543.03 294.042C531.944 281.916 528.192 291.891 538.779 305.347C542.162 309.649 550.189 320.359 556.617 329.148C563.042 337.934 568.301 344.002 568.301 342.63C568.301 341.256 566.856 331.929 565.093 321.901C562.485 307.074 562.744 300.798 566.49 288.319C570.667 274.395 570.658 272.309 566.398 265.874C561.662 258.721 562.61 249.905 568.113 249.905C569.749 249.905 570.349 251.812 569.445 254.139C568.542 256.47 569.163 260.772 570.825 263.702C573.679 268.734 573.958 268.743 575.852 263.882C577.02 260.88 581.132 258.635 585.713 258.5C590.274 258.365 591.701 257.591 589.112 256.655C583.317 254.557 571.274 243.694 571.274 240.566C571.274 239.23 572.84 238.135 574.755 238.135C576.67 238.135 580.683 235.943 583.674 233.266C588.16 229.249 589.112 229.146 589.112 232.677C589.112 235.031 587.729 238.327 586.04 239.998C581.706 244.288 585.916 253.327 591.716 252.183C594.909 251.553 596.262 248.766 595.709 243.947C594.921 237.07 595.117 236.967 599.223 242.099C603.584 247.554 602.677 255.79 597.712 255.79C596.253 255.79 595.057 257.114 595.057 258.733C595.057 260.351 600.745 261.634 607.693 261.584C619.632 261.498 621.475 262.711 641.139 283.596C656.937 300.377 670.14 310.546 695.957 325.817C714.663 336.884 730.408 347.241 730.943 348.833C731.478 350.425 722.64 366.885 711.298 385.408C699.959 403.93 691.094 419.496 691.602 419.999C692.107 420.499 719.001 404.192 751.365 383.757L810.206 346.6L850.537 365.681C872.719 376.177 904.916 389.448 922.085 395.177C939.254 400.903 968.353 410.883 986.747 417.354C1005.14 423.827 1020.19 428.685 1020.19 428.155C1020.19 426.134 930.793 361.509 924.371 358.89C920.661 357.375 910.267 354.7 901.274 352.944C885.728 349.91 883.088 347.944 847.743 313.094L810.566 276.434L793.302 295.537C778.074 312.388 774.768 314.639 765.266 314.639C758.342 314.639 752.069 316.896 747.702 320.956C741.759 326.482 740.252 326.759 735.667 323.163C731.261 319.706 666.736 264.541 635.493 237.52C630.421 233.133 625.093 229.493 623.649 229.429C622.207 229.361 618.544 226.474 615.509 223.014C610.698 217.524 607.963 216.956 594.127 218.565C583.493 219.804 576.595 219.207 573.212 216.758C568.77 213.545 573.417 208.946 611.828 178.533C635.844 159.519 656.063 144.527 656.765 145.219C657.463 145.913 656.307 151.213 654.193 156.995C651.526 164.298 651.3 168.452 653.453 170.583C657.585 174.673 707.148 123.863 744.693 77.0366C754.103 65.3021 762.356 55.7039 763.034 55.7039C763.711 55.7039 778.035 67.1706 794.865 81.1855C811.695 95.1974 826.055 107.15 826.78 107.744C827.503 108.335 822.312 120.502 815.242 134.776L802.39 160.729L821.352 185.954C831.778 199.828 840.539 210.953 840.818 210.679C841.095 210.403 839.861 200.145 838.077 187.881C835.009 166.799 835.25 164.554 842.534 146.687L850.234 127.794L872.038 128.371L893.842 128.95L914.652 150.945C933.623 170.998 958.979 188.655 997.263 208.473C1001.7 210.768 1005.33 213.722 1005.33 215.037C1005.33 216.352 995.963 232.798 984.517 251.582C973.071 270.367 963.707 286.206 963.707 286.78C963.707 287.351 990.371 271.217 1022.96 250.92L1082.22 214.022L1099.52 220.413C1109.03 223.926 1126.42 232.045 1138.17 238.45C1155.74 248.034 1287.49 295.189 1289.99 292.788C1290.4 292.394 1270.37 276.958 1245.48 258.482C1202.32 226.46 1199.24 224.727 1179.46 221.313L1158.71 217.73L1121.35 180.831L1083.98 143.933L1064.81 163.08C1048.76 179.104 1044 182.229 1035.62 182.229C1028.86 182.229 1023.87 184.353 1020.26 188.764L1014.91 195.302L987.08 171.901C971.772 159.034 942.991 134.244 923.12 116.816L886.992 85.1283H866.538H846.084L805.009 42.4629C782.417 18.9969 762.391 -0.111325 760.51 0.000488221C758.625 0.112301 732.335 20.7153 702.085 45.7849ZM527.175 134.829C527.719 136.271 534.102 143.795 541.362 151.548L554.557 165.645L576.557 154.076C588.654 147.711 599.466 142.168 600.578 141.753C601.693 141.338 605.088 145.56 608.121 151.139L613.639 161.279L600.219 175.432C592.834 183.215 583.183 193.887 578.768 199.148C574.357 204.409 569.02 208.711 566.915 208.711C564.807 208.711 550.1 195.323 534.233 178.963L505.384 149.212L513.616 140.711C522.196 131.846 525.505 130.41 527.175 134.829ZM647.495 177.815C646.555 180.243 647.082 182.229 648.663 182.229C650.248 182.229 651.544 180.243 651.544 177.815C651.544 175.388 651.018 173.402 650.376 173.402C649.734 173.402 648.437 175.388 647.495 177.815ZM607.342 229.229C612.663 234.039 616.091 238.895 614.956 240.019C612.863 242.093 595.292 226.728 595.141 222.688C594.998 218.927 597.323 220.172 607.342 229.229Z" fill="#EFEFEF" fill-opacity="0.6"/>
</svg>
