<svg width="24" height="24" viewBox="0 0 24 24" fill="none" xmlns="http://www.w3.org/2000/svg">
<path d="M6.915 4.02981C4.947 4.02981 3.232 5.30981 2.044 7.14281C0.704 9.20781 0 11.8828 0 14.4488C0 15.1548 0.07 15.8178 0.21 16.4218C0.278736 16.7142 0.367274 17.0015 0.475 17.2818C0.578164 17.545 0.702227 17.7994 0.846 18.0428C1.542 19.2018 2.664 19.9698 4.439 19.9698C5.936 19.9698 7.072 19.2988 8.404 17.5258C9.164 16.5138 9.548 15.8998 11.067 13.2058L11.823 11.8668L12.009 11.5418C12.07 11.6418 12.13 11.7378 12.192 11.8418L14.344 15.4368C15.068 16.6468 16.009 17.9928 16.814 18.7508C17.86 19.7378 18.806 19.9708 19.874 19.9708C20.949 19.9708 21.75 19.6158 22.329 19.1278C22.6523 18.8518 22.9262 18.5228 23.139 18.1548C23.681 17.2158 24 16.0278 24 14.4098C24 11.6898 23.319 9.05281 21.916 6.95981C20.634 5.04781 18.959 4.02981 17.2 4.02981C16.153 4.02981 15.112 4.49681 14.147 5.33781C13.495 5.90781 12.89 6.62781 12.327 7.38781C11.637 6.51281 10.992 5.84081 10.369 5.33181C9.187 4.36581 8.054 4.02881 6.915 4.02881V4.02981ZM17.075 6.08281C18.222 6.08281 19.263 6.84081 20.067 8.08181C21.199 9.82981 21.714 12.2768 21.714 14.4818C21.714 16.0298 21.346 17.3818 19.875 17.3818C19.295 17.3818 18.848 17.1518 18.211 16.3778C17.715 15.7768 16.868 14.4998 15.379 12.0198L14.762 10.9918C14.361 10.321 13.9425 9.66078 13.507 9.01181C13.577 8.90281 13.648 8.78781 13.718 8.68481C14.838 7.01781 15.835 6.08281 17.075 6.08281ZM6.874 6.63581C8.139 6.63581 8.932 7.42681 9.549 8.08181C9.856 8.40881 10.286 8.95281 10.783 9.66081L9.763 11.2268C9.006 12.3898 7.881 14.2438 6.926 15.5648C5.735 17.2138 5.116 17.3818 4.44 17.3818C3.916 17.3818 3.402 17.1448 3.057 16.5878C2.794 16.1618 2.593 15.4578 2.593 14.5418C2.593 12.3208 3.223 10.0068 4.253 8.45381C4.707 7.76681 5.217 7.22781 5.786 6.92081C6.11892 6.7358 6.49313 6.63778 6.874 6.63581Z" fill="#101010"/>
</svg>
