<svg width="24" height="24" viewBox="0 0 24 24" fill="none" xmlns="http://www.w3.org/2000/svg">
<g clip-path="url(#clip0_355_1189)">
<path d="M16.484 12.4806L22.635 6.79852V18.0979L16.484 12.4806ZM8.558 13.4429L10.718 15.4365C11.057 15.7427 11.499 15.9277 11.982 15.9277H11.999H12.012C12.496 15.9277 12.938 15.7417 13.281 15.4333L13.278 15.4354L15.438 13.4418L22.004 19.4376H1.995L8.558 13.4429ZM1.986 5.45136H22.016L12.395 14.336C12.2868 14.427 12.1529 14.4765 12.015 14.4764H12.001H11.988C11.8496 14.4766 11.7152 14.4267 11.607 14.335L11.608 14.336L1.986 5.45136ZM1.365 6.79746L7.515 12.4796L1.365 18.0936V6.79746ZM22.965 4.20202C22.725 4.07443 22.443 4 22.144 4H1.859C1.56916 4.00007 1.28331 4.07178 1.024 4.20946L1.035 4.20415C0.724573 4.36695 0.463148 4.6188 0.280254 4.93126C0.0973606 5.24372 0.000287348 5.60433 0 5.97236L0 18.9144C0.000529404 19.4382 0.196452 19.9404 0.54478 20.3108C0.893108 20.6811 1.36539 20.8894 1.858 20.89H22.141C22.6336 20.8894 23.1059 20.6811 23.4542 20.3108C23.8025 19.9404 23.9985 19.4382 23.999 18.9144V5.97236C23.999 5.19937 23.58 4.52951 22.97 4.20734L22.959 4.20202H22.965Z" fill="#101010"/>
</g>
<defs>
<clipPath id="clip0_355_1189">
<rect width="24" height="24" fill="white"/>
</clipPath>
</defs>
</svg>
