<svg width="543" height="266" viewBox="0 0 543 266" fill="none" xmlns="http://www.w3.org/2000/svg">
<g clip-path="url(#clip0_167_8)">
<mask id="path-1-inside-1_167_8" fill="white">
<path d="M97.6288 191.537L98.2935 191.885L99.9793 191.844L100.719 192.896L100.637 193.504L101.076 193.675L103.46 193.203L103.721 193.607L105.181 193.989L106.592 194.884L106.722 195.547L108.299 196.243L110.526 195.936L111.307 198.586L111.93 199.29L113.342 199.563L115.809 199.331L116.631 198.709L116.673 196.605L117.221 196.216H118.242L119.222 196.763L120.085 198.75L120.517 200.158L119.77 201.906L120.483 202.521L121.065 204.338H121.613L122.751 202.856L124.355 201.763L124.629 201.961L126.506 200.595L127.13 200.322L127.644 200.526L128.014 200.192L128.034 199.112L127.055 198.409L127.808 197.213L129.837 197.008L131.831 198.218L132.667 198.354L134.531 196.578L136.525 196.421L136.34 195.144L138.677 194.03L143.083 192.821H144.042L144.68 193.333L144.933 194.098L144.234 196.961L145.255 198.231V198.744L143.405 200.082L143.851 200.595L146.79 201.742L147.558 202.439L147.88 203.327V204.215L145.838 205.998L147.942 206.695L148.579 207.139L148.833 207.836L148.257 209.742L149.148 211.012L149.209 211.839L148.127 214.571L148.188 215.459L150.868 215.972L152.656 217.119L154 220.494L155.082 221.894H155.973L156.741 220.938L157.316 220.747L158.399 221.191L158.591 221.826L159.29 222.4L158.591 223.165L159.612 223.868L161.147 225.713L161.592 227.427L160.955 227.871L160.763 229.21L159.105 230.29L155.404 231.499L154.89 232.134L153.232 232.325L151.635 234.231L149.271 234.805L148.634 235.317L146.462 235.953L144.995 235.126L142.761 234.935L141.61 235.065L139.122 236.212L138.039 235.065L135.422 235.003L132.996 233.097L131.146 232.844L128.973 233.165L127.377 231.827L125.081 231.506L123.93 230.993L123.162 230.419L122.84 229.34L120.092 228.958L118.941 231.184L118.112 231.697L114.219 232.079L113.644 232.462L111.793 235.707L111.54 237.681L110.868 238.596L109.902 237.981L109.354 238.022L109.395 238.883L106.578 239.546L106.106 240.912L105.633 241.185L103.598 240.987L102.172 241.534L101.795 243.091L100.582 244.532L99.3283 244.375L98.8554 243.48H98.3072L95.4907 245.045L91.7628 244.573L90.6664 244.806L90.1593 245.154L89.8852 246.049L89.5357 249.874L88.4392 251.241L87.4182 251.473L85.89 251.241L83.2312 249.799L81.9771 252.217L80.8395 251.985L80.2913 251.282L79.5855 251.165L78.1396 252.491L76.8855 252.566L75.0421 251.944L73.5551 250.66L73.9731 247.203L73.0068 245.865L70.6563 244.58L68.8541 240.639L68.1894 240.167L64.5437 239.471L62.9813 237.79L62.3166 237.906L61.7683 238.685L60.2402 238.883L59.4384 239.723L57.8143 239.505L56.8344 240.714L54.4085 239.587L53.7026 241.021L52.7158 241.855L51.5851 243.679L49.2346 243.638L48.611 243.091L48.4534 241.725L47.357 240.789L46.7334 240.748L45.1298 241.916L44.4651 241.841L42.1146 239.696L40.3809 240.693L39.9834 241.499L38.5101 241.185L37.2629 243.016L36.2829 243.091L35.4606 241.26L34.0147 241.219L32.0959 240.557L31.5477 240.905L30.9583 242.777L29.718 243.33L25.9833 240.475L22.5021 239.307L21.4467 239.348L20.6244 240.126L19.6102 240.243L18.5138 239.928L18.0957 239.43L17.1775 239.655L15.7589 241.534L14.8818 241.609L14.3199 242.121L14.361 242.668L13.0315 242.627L11.0648 243.255L10.4686 242.811L9.427 243.289L7.93995 242.784L7.35061 241.616H6.63793L6.21306 243.33L5.30849 244.068L3.97906 243.016L4.02018 241.732L4.60951 240.987L4.76713 239.894L3.32119 235.604L3.28008 232.872L2.84836 231.307L0.929584 228.91V226.362L0.223751 225.754L0.175781 225.016L3.50622 221.252L1.93694 219.046L2.83465 216.429L4.43819 215.125L4.86992 214.107L3.77348 212.467L4.12297 211.996L4.67119 212.228L5.4524 213.553L6.66534 213.437L7.64528 214.141L8.4265 215.35L8.62523 218.24L10.3864 218.513L11.6404 217.44L12.778 217.229L14.1074 217.659L14.3815 217.345L12.6204 214.653L12.2298 213.014L12.8534 206.456L13.4016 206.025L14.4227 206.101L15.8686 207.036L19.3155 205.67L20.3708 205.711L20.6038 206.299L21.3097 206.224L22.6391 204.079L25.298 202.521L28.5051 201.469L30.5609 201.544L32.7538 200.998L36.9408 199.317L37.8385 199.358L41.5184 201.503L44.143 204.079L44.9654 204.154L45.5547 203.532L46.3359 203.846L46.4935 204.823L47.3913 205.8L50.3653 205.568L51.1123 205.841L52.7981 206.859L54.0521 206.975L54.1275 207.795L54.5592 208.184L57.6498 209.865L63.365 211.388L64.7767 212.283L65.2838 212.754L65.0097 213.731L63.365 214.626L61.0556 216.58L60.7815 218.923L61.131 219.742L61.8369 219.858L61.7341 218L62.0699 216.778L62.5427 216.429L64.0297 216.504L67.0038 214.824L66.8462 213.533L67.7439 212.249L68.251 207.583L69.7381 206.961L75.2957 205.868L76.0426 204.577L75.885 202.897L77.2144 202.425L77.7627 202.897L78.8385 202.603L80.538 201.496L84.3344 199.973L84.9512 198.375L83.6971 196.271L84.0124 195.526L85.0677 195.178L88.3981 195.062L90.7486 193.62L92.4687 191.516L94.7369 191.284L97.6288 191.537ZM88.2063 199.604L88.6037 198.839L88.6311 197.733L88.1309 197.077L87.6032 197.733L87.891 199.365L88.2063 199.604ZM119.194 200.97L119.366 200.322L118.064 199.946V200.8L118.406 200.902L119.194 200.97ZM86.5959 203.792L86.7261 205.896L86.3286 208.847L86.7535 210.425L87.5484 211.531L88.5489 212.112L90.6116 212.426L91.1941 212.768L91.2969 213.348L91.0844 214.216L90.3717 214.503L91.2969 216.265L89.5768 217.925L89.1793 219.271L88.3365 219.906L88.5215 220.378L89.892 220.535L90.8171 221.348L91.1872 220.897L90.687 220.316L90.8171 219.708L91.3996 218.998L92.1123 219.155L91.9821 220.603L92.3796 220.815L94.8397 220.473L96.4775 218.656L96.5803 218.185L95.9978 217.604L96.1006 216.866L95.5456 216.525L92.6948 216.627L92.64 216.129L93.6405 215.678L93.9077 215.125L93.7501 214.387L92.9826 213.547L94.1476 213.178L95.6552 212.126L95.8676 211.675L95.6278 210.964L92.8524 212.331L92.2425 212.276L91.1598 208.007L90.1524 207.556L89.6248 206.873L89.1999 204.687L88.1172 202.555L86.637 201.845L85.9243 202.241L86.0545 202.74L86.5959 203.792ZM122.689 217.447L124.567 216.136L127.055 216.463L127.712 214.967L124.142 212.016L123.628 212.624L124.19 214.168L123.155 215.008L121.415 215.432L121.23 216.183L122.689 217.447ZM62.7003 221.061L62.2823 221.894L63.3924 223.834L63.6117 225.631L64.3244 225.747L65.9691 225.112L66.3665 225.351L66.7023 226.02L66.1061 227.68L66.2843 228.473L67.8125 227.448L69.4777 225.077L71.7596 224.107L72.8287 222.687L72.534 221.717L71.7596 221.559L69.6558 222.133L67.9495 222.092L64.2216 220.945L62.7003 221.061Z"/>
</mask>
<path d="M97.6288 191.537L98.2935 191.885L99.9793 191.844L100.719 192.896L100.637 193.504L101.076 193.675L103.46 193.203L103.721 193.607L105.181 193.989L106.592 194.884L106.722 195.547L108.299 196.243L110.526 195.936L111.307 198.586L111.93 199.29L113.342 199.563L115.809 199.331L116.631 198.709L116.673 196.605L117.221 196.216H118.242L119.222 196.763L120.085 198.75L120.517 200.158L119.77 201.906L120.483 202.521L121.065 204.338H121.613L122.751 202.856L124.355 201.763L124.629 201.961L126.506 200.595L127.13 200.322L127.644 200.526L128.014 200.192L128.034 199.112L127.055 198.409L127.808 197.213L129.837 197.008L131.831 198.218L132.667 198.354L134.531 196.578L136.525 196.421L136.34 195.144L138.677 194.03L143.083 192.821H144.042L144.68 193.333L144.933 194.098L144.234 196.961L145.255 198.231V198.744L143.405 200.082L143.851 200.595L146.79 201.742L147.558 202.439L147.88 203.327V204.215L145.838 205.998L147.942 206.695L148.579 207.139L148.833 207.836L148.257 209.742L149.148 211.012L149.209 211.839L148.127 214.571L148.188 215.459L150.868 215.972L152.656 217.119L154 220.494L155.082 221.894H155.973L156.741 220.938L157.316 220.747L158.399 221.191L158.591 221.826L159.29 222.4L158.591 223.165L159.612 223.868L161.147 225.713L161.592 227.427L160.955 227.871L160.763 229.21L159.105 230.29L155.404 231.499L154.89 232.134L153.232 232.325L151.635 234.231L149.271 234.805L148.634 235.317L146.462 235.953L144.995 235.126L142.761 234.935L141.61 235.065L139.122 236.212L138.039 235.065L135.422 235.003L132.996 233.097L131.146 232.844L128.973 233.165L127.377 231.827L125.081 231.506L123.93 230.993L123.162 230.419L122.84 229.34L120.092 228.958L118.941 231.184L118.112 231.697L114.219 232.079L113.644 232.462L111.793 235.707L111.54 237.681L110.868 238.596L109.902 237.981L109.354 238.022L109.395 238.883L106.578 239.546L106.106 240.912L105.633 241.185L103.598 240.987L102.172 241.534L101.795 243.091L100.582 244.532L99.3283 244.375L98.8554 243.48H98.3072L95.4907 245.045L91.7628 244.573L90.6664 244.806L90.1593 245.154L89.8852 246.049L89.5357 249.874L88.4392 251.241L87.4182 251.473L85.89 251.241L83.2312 249.799L81.9771 252.217L80.8395 251.985L80.2913 251.282L79.5855 251.165L78.1396 252.491L76.8855 252.566L75.0421 251.944L73.5551 250.66L73.9731 247.203L73.0068 245.865L70.6563 244.58L68.8541 240.639L68.1894 240.167L64.5437 239.471L62.9813 237.79L62.3166 237.906L61.7683 238.685L60.2402 238.883L59.4384 239.723L57.8143 239.505L56.8344 240.714L54.4085 239.587L53.7026 241.021L52.7158 241.855L51.5851 243.679L49.2346 243.638L48.611 243.091L48.4534 241.725L47.357 240.789L46.7334 240.748L45.1298 241.916L44.4651 241.841L42.1146 239.696L40.3809 240.693L39.9834 241.499L38.5101 241.185L37.2629 243.016L36.2829 243.091L35.4606 241.26L34.0147 241.219L32.0959 240.557L31.5477 240.905L30.9583 242.777L29.718 243.33L25.9833 240.475L22.5021 239.307L21.4467 239.348L20.6244 240.126L19.6102 240.243L18.5138 239.928L18.0957 239.43L17.1775 239.655L15.7589 241.534L14.8818 241.609L14.3199 242.121L14.361 242.668L13.0315 242.627L11.0648 243.255L10.4686 242.811L9.427 243.289L7.93995 242.784L7.35061 241.616H6.63793L6.21306 243.33L5.30849 244.068L3.97906 243.016L4.02018 241.732L4.60951 240.987L4.76713 239.894L3.32119 235.604L3.28008 232.872L2.84836 231.307L0.929584 228.91V226.362L0.223751 225.754L0.175781 225.016L3.50622 221.252L1.93694 219.046L2.83465 216.429L4.43819 215.125L4.86992 214.107L3.77348 212.467L4.12297 211.996L4.67119 212.228L5.4524 213.553L6.66534 213.437L7.64528 214.141L8.4265 215.35L8.62523 218.24L10.3864 218.513L11.6404 217.44L12.778 217.229L14.1074 217.659L14.3815 217.345L12.6204 214.653L12.2298 213.014L12.8534 206.456L13.4016 206.025L14.4227 206.101L15.8686 207.036L19.3155 205.67L20.3708 205.711L20.6038 206.299L21.3097 206.224L22.6391 204.079L25.298 202.521L28.5051 201.469L30.5609 201.544L32.7538 200.998L36.9408 199.317L37.8385 199.358L41.5184 201.503L44.143 204.079L44.9654 204.154L45.5547 203.532L46.3359 203.846L46.4935 204.823L47.3913 205.8L50.3653 205.568L51.1123 205.841L52.7981 206.859L54.0521 206.975L54.1275 207.795L54.5592 208.184L57.6498 209.865L63.365 211.388L64.7767 212.283L65.2838 212.754L65.0097 213.731L63.365 214.626L61.0556 216.58L60.7815 218.923L61.131 219.742L61.8369 219.858L61.7341 218L62.0699 216.778L62.5427 216.429L64.0297 216.504L67.0038 214.824L66.8462 213.533L67.7439 212.249L68.251 207.583L69.7381 206.961L75.2957 205.868L76.0426 204.577L75.885 202.897L77.2144 202.425L77.7627 202.897L78.8385 202.603L80.538 201.496L84.3344 199.973L84.9512 198.375L83.6971 196.271L84.0124 195.526L85.0677 195.178L88.3981 195.062L90.7486 193.62L92.4687 191.516L94.7369 191.284L97.6288 191.537ZM88.2063 199.604L88.6037 198.839L88.6311 197.733L88.1309 197.077L87.6032 197.733L87.891 199.365L88.2063 199.604ZM119.194 200.97L119.366 200.322L118.064 199.946V200.8L118.406 200.902L119.194 200.97ZM86.5959 203.792L86.7261 205.896L86.3286 208.847L86.7535 210.425L87.5484 211.531L88.5489 212.112L90.6116 212.426L91.1941 212.768L91.2969 213.348L91.0844 214.216L90.3717 214.503L91.2969 216.265L89.5768 217.925L89.1793 219.271L88.3365 219.906L88.5215 220.378L89.892 220.535L90.8171 221.348L91.1872 220.897L90.687 220.316L90.8171 219.708L91.3996 218.998L92.1123 219.155L91.9821 220.603L92.3796 220.815L94.8397 220.473L96.4775 218.656L96.5803 218.185L95.9978 217.604L96.1006 216.866L95.5456 216.525L92.6948 216.627L92.64 216.129L93.6405 215.678L93.9077 215.125L93.7501 214.387L92.9826 213.547L94.1476 213.178L95.6552 212.126L95.8676 211.675L95.6278 210.964L92.8524 212.331L92.2425 212.276L91.1598 208.007L90.1524 207.556L89.6248 206.873L89.1999 204.687L88.1172 202.555L86.637 201.845L85.9243 202.241L86.0545 202.74L86.5959 203.792ZM122.689 217.447L124.567 216.136L127.055 216.463L127.712 214.967L124.142 212.016L123.628 212.624L124.19 214.168L123.155 215.008L121.415 215.432L121.23 216.183L122.689 217.447ZM62.7003 221.061L62.2823 221.894L63.3924 223.834L63.6117 225.631L64.3244 225.747L65.9691 225.112L66.3665 225.351L66.7023 226.02L66.1061 227.68L66.2843 228.473L67.8125 227.448L69.4777 225.077L71.7596 224.107L72.8287 222.687L72.534 221.717L71.7596 221.559L69.6558 222.133L67.9495 222.092L64.2216 220.945L62.7003 221.061Z" fill="#E5EBEF" stroke="#E5EBEF" stroke-width="2" mask="url(#path-1-inside-1_167_8)"/>
<mask id="path-2-inside-2_167_8" fill="white">
<path d="M245.723 1.52927H247.094L248.505 3.36001L249.753 3.24388V3.87234L250.15 4.14559L250.733 4.45299L251.397 4.29587L251.713 4.84236L252.336 4.69207L253.947 6.44767L255.824 7.14444L256.174 7.77291L257.544 7.38353L258.367 8.08714L261.738 8.98201L262.046 9.95886L264.986 13.6272L266.391 14.8773L267.686 15.3828L268.509 16.8651L270.345 18.0742L271.325 18.2313L272.463 17.7258L273.127 17.9171L274.285 17.3296L274.95 17.5277L278.397 19.0921L279.137 19.8298L283.996 22.3642L287.559 23.382L289.869 24.9805L292.096 25.6089L293.699 26.8932L296.756 26.7361L299.613 27.5558H301.758L305.637 28.4165L307.905 28.1023L318.554 30.9099L320.158 28.6078L320.857 28.1911L321.857 24.0651L322.947 22.6784L324.544 21.4283L328.299 20.3763L329.121 20.6086L330.019 21.9748L332.013 22.2071L333.459 23.341H334.597L338.708 22.2071L341.449 22.289L342.189 22.8765L345.952 22.9516L346.774 23.423L347.185 26.094L348.021 26.5448L349.357 26.6199L356.005 24.7141L356.635 23.4981L357.183 23.1361L360.808 23.7509L361.72 23.2659L363.591 23.7509L367.469 23.7304L368.566 23.0678L369.032 22.2685L369.114 21.0799L369.628 20.6086L372.403 20.4173L373.15 19.0921L373.733 19.0101L377.18 19.5976L378.358 18.853L380.462 18.5592L381.202 18.8735L382.347 20.6086L383.094 20.5334L384.731 19.1467L387.664 19.379L388.528 19.6181L388.836 21.0594L390.179 21.237L392.167 22.8014L391.584 23.6962L389.713 24.1607L387.534 26.1008L386.52 29.3592L385.746 29.7486L383.875 29.4412L376.631 30.3702L375.624 30.6776L375.151 31.2241L373.13 30.9919L370.018 32.3854L368.847 32.5425L365.503 32.078L363.707 32.8568L362.076 32.6245L360.829 33.1642L358.417 32.7748L357.012 33.089L356.313 32.4674L354.99 32.3854L354.915 33.9429L353.044 34.1752L351.955 34.7148L350.241 34.4826L348.919 35.8829L344.403 38.752L343.156 40.1524L341.442 40.9243L341.209 42.7141L340.51 43.1786L339.496 43.486L338.407 43.0215H336.145L334.823 43.3289L334.048 43.9505L330.93 44.497L330.389 45.1186L327.737 45.0366L325.948 45.426L324.235 44.6541L322.68 44.415L322.289 45.2689L322.68 46.8264L322.597 48.2199L320.185 48.3019L319.253 49.0738H318.239L317.615 49.6203L316.608 51.9497L314.114 53.7326L313.257 54.7436L310.53 55.9049L309.522 55.2833L308.666 55.2082L308.275 54.5046L308.351 53.8078L307.652 53.6507L307.343 54.1972L306.487 54.5865L305.157 54.9759L303.835 54.7436L302.745 55.1262L300.956 53.8898L300.175 54.8939L297.996 54.9759L296.132 55.7478L292.706 54.5046L290.527 55.051L289.588 54.7436L288.964 54.04L286.867 55.5156L284.921 55.5975L284.14 54.4294L283.359 54.1972L281.803 55.051L278.301 54.5046L277.52 54.8939L272.305 55.3584L272.538 56.4514L274.094 58.2343L274.642 59.7099L275.574 60.9463L275.889 62.7361L275.183 63.2757L273.943 62.9683L271.373 63.2757L270.201 63.8222L268.57 65.9193L266.699 67.388L264.753 67.0806L261.361 68.2829L259.723 68.2078L257.544 68.7474L255.906 68.3649L254.042 68.9797L252.172 69.1368L250.068 68.7474L248.745 74.8818L249.526 75.5785L251.781 76.5896L252.014 77.2863L251.39 77.5186L250.767 78.5296L249.759 78.7618L248.821 79.5406L248.437 80.3125L249.054 82.6419L248.588 83.8032L246.724 84.7391L246.066 88.503L244.743 88.7353L243.105 88.2708L242.173 88.6601L241.392 89.3569L240.152 93.0799L239.295 93.7015L238.281 92.5402L239.446 89.1998L239.138 88.8104L236.493 89.2749L235.478 89.0427L235.012 87.9565L233.142 86.2487L232.367 85.0123L231.195 86.1736L230.414 86.0165L229.174 86.563H225.665L225.124 86.0985L223.102 86.563L222.643 86.3102L222.595 84.9099L222.177 84.4453L221.862 82.9357L221.136 82.5736L218.943 82.2594L213.269 83.6119L212.433 82.9903L211.754 82.9357L211.178 83.5573L209.671 83.407L208.787 82.4711L207.375 82.5736L202.688 81.1186L201.694 81.3782L200.605 80.4423L200.029 78.1061L199.193 76.9653L193.827 75.5102L191.6 75.7152L190.072 75.114L189.825 73.9186L190.161 72.0332L187.934 71.2271L186.995 69.9497L187.194 66.4522L187.735 65.9808L190.702 66.9235L193.738 64.3004L194.478 64.1638L195.493 64.5736L197.918 63.6992L200.755 64.437L202.571 62.8249L205.408 62.6199L208.444 63.6309L213.502 61.8822L214.31 60.9395L214.447 58.7877L216.339 56.4992L216.811 55.092V53.8146L215.256 52.7353L214.379 53.4731L213.639 53.3433L213.166 52.0658L212.426 51.3213L211.48 51.5262L211.411 53.0017L210.671 55.2901L210.13 55.4951L209.39 55.1194L209.479 54.0947L207.642 52.3391L205.84 48.8416L205.018 45.8427L205.059 42.1744L206.203 39.2029L206.43 37.1467L207.917 34.2503L209.04 32.8431L209.554 27.6378L209.246 25.2537L208.588 23.7304L208.903 22.248L210.699 20.4515L210.617 17.2955L211.172 15.9293L213.598 15.3418L215.407 14.3581L216.887 12.9236L219.395 11.6325L222.41 9.41238L222.862 9.99302L223.801 10.3073L224.466 9.60365L228.201 9.95886L229.256 8.90004L229.475 8.18277L229.852 8.2989L231.476 3.63325L233.745 4.45299L234.642 5.93534L235.862 6.55697L236.876 6.20858L237.932 5.23173L242.982 4.96532L243.729 4.6101L244.037 3.87234L242.633 1.37215L242.941 0.279175L244.161 1.1399L245.723 1.52927Z"/>
</mask>
<path d="M245.723 1.52927H247.094L248.505 3.36001L249.753 3.24388V3.87234L250.15 4.14559L250.733 4.45299L251.397 4.29587L251.713 4.84236L252.336 4.69207L253.947 6.44767L255.824 7.14444L256.174 7.77291L257.544 7.38353L258.367 8.08714L261.738 8.98201L262.046 9.95886L264.986 13.6272L266.391 14.8773L267.686 15.3828L268.509 16.8651L270.345 18.0742L271.325 18.2313L272.463 17.7258L273.127 17.9171L274.285 17.3296L274.95 17.5277L278.397 19.0921L279.137 19.8298L283.996 22.3642L287.559 23.382L289.869 24.9805L292.096 25.6089L293.699 26.8932L296.756 26.7361L299.613 27.5558H301.758L305.637 28.4165L307.905 28.1023L318.554 30.9099L320.158 28.6078L320.857 28.1911L321.857 24.0651L322.947 22.6784L324.544 21.4283L328.299 20.3763L329.121 20.6086L330.019 21.9748L332.013 22.2071L333.459 23.341H334.597L338.708 22.2071L341.449 22.289L342.189 22.8765L345.952 22.9516L346.774 23.423L347.185 26.094L348.021 26.5448L349.357 26.6199L356.005 24.7141L356.635 23.4981L357.183 23.1361L360.808 23.7509L361.72 23.2659L363.591 23.7509L367.469 23.7304L368.566 23.0678L369.032 22.2685L369.114 21.0799L369.628 20.6086L372.403 20.4173L373.15 19.0921L373.733 19.0101L377.18 19.5976L378.358 18.853L380.462 18.5592L381.202 18.8735L382.347 20.6086L383.094 20.5334L384.731 19.1467L387.664 19.379L388.528 19.6181L388.836 21.0594L390.179 21.237L392.167 22.8014L391.584 23.6962L389.713 24.1607L387.534 26.1008L386.52 29.3592L385.746 29.7486L383.875 29.4412L376.631 30.3702L375.624 30.6776L375.151 31.2241L373.13 30.9919L370.018 32.3854L368.847 32.5425L365.503 32.078L363.707 32.8568L362.076 32.6245L360.829 33.1642L358.417 32.7748L357.012 33.089L356.313 32.4674L354.99 32.3854L354.915 33.9429L353.044 34.1752L351.955 34.7148L350.241 34.4826L348.919 35.8829L344.403 38.752L343.156 40.1524L341.442 40.9243L341.209 42.7141L340.51 43.1786L339.496 43.486L338.407 43.0215H336.145L334.823 43.3289L334.048 43.9505L330.93 44.497L330.389 45.1186L327.737 45.0366L325.948 45.426L324.235 44.6541L322.68 44.415L322.289 45.2689L322.68 46.8264L322.597 48.2199L320.185 48.3019L319.253 49.0738H318.239L317.615 49.6203L316.608 51.9497L314.114 53.7326L313.257 54.7436L310.53 55.9049L309.522 55.2833L308.666 55.2082L308.275 54.5046L308.351 53.8078L307.652 53.6507L307.343 54.1972L306.487 54.5865L305.157 54.9759L303.835 54.7436L302.745 55.1262L300.956 53.8898L300.175 54.8939L297.996 54.9759L296.132 55.7478L292.706 54.5046L290.527 55.051L289.588 54.7436L288.964 54.04L286.867 55.5156L284.921 55.5975L284.14 54.4294L283.359 54.1972L281.803 55.051L278.301 54.5046L277.52 54.8939L272.305 55.3584L272.538 56.4514L274.094 58.2343L274.642 59.7099L275.574 60.9463L275.889 62.7361L275.183 63.2757L273.943 62.9683L271.373 63.2757L270.201 63.8222L268.57 65.9193L266.699 67.388L264.753 67.0806L261.361 68.2829L259.723 68.2078L257.544 68.7474L255.906 68.3649L254.042 68.9797L252.172 69.1368L250.068 68.7474L248.745 74.8818L249.526 75.5785L251.781 76.5896L252.014 77.2863L251.39 77.5186L250.767 78.5296L249.759 78.7618L248.821 79.5406L248.437 80.3125L249.054 82.6419L248.588 83.8032L246.724 84.7391L246.066 88.503L244.743 88.7353L243.105 88.2708L242.173 88.6601L241.392 89.3569L240.152 93.0799L239.295 93.7015L238.281 92.5402L239.446 89.1998L239.138 88.8104L236.493 89.2749L235.478 89.0427L235.012 87.9565L233.142 86.2487L232.367 85.0123L231.195 86.1736L230.414 86.0165L229.174 86.563H225.665L225.124 86.0985L223.102 86.563L222.643 86.3102L222.595 84.9099L222.177 84.4453L221.862 82.9357L221.136 82.5736L218.943 82.2594L213.269 83.6119L212.433 82.9903L211.754 82.9357L211.178 83.5573L209.671 83.407L208.787 82.4711L207.375 82.5736L202.688 81.1186L201.694 81.3782L200.605 80.4423L200.029 78.1061L199.193 76.9653L193.827 75.5102L191.6 75.7152L190.072 75.114L189.825 73.9186L190.161 72.0332L187.934 71.2271L186.995 69.9497L187.194 66.4522L187.735 65.9808L190.702 66.9235L193.738 64.3004L194.478 64.1638L195.493 64.5736L197.918 63.6992L200.755 64.437L202.571 62.8249L205.408 62.6199L208.444 63.6309L213.502 61.8822L214.31 60.9395L214.447 58.7877L216.339 56.4992L216.811 55.092V53.8146L215.256 52.7353L214.379 53.4731L213.639 53.3433L213.166 52.0658L212.426 51.3213L211.48 51.5262L211.411 53.0017L210.671 55.2901L210.13 55.4951L209.39 55.1194L209.479 54.0947L207.642 52.3391L205.84 48.8416L205.018 45.8427L205.059 42.1744L206.203 39.2029L206.43 37.1467L207.917 34.2503L209.04 32.8431L209.554 27.6378L209.246 25.2537L208.588 23.7304L208.903 22.248L210.699 20.4515L210.617 17.2955L211.172 15.9293L213.598 15.3418L215.407 14.3581L216.887 12.9236L219.395 11.6325L222.41 9.41238L222.862 9.99302L223.801 10.3073L224.466 9.60365L228.201 9.95886L229.256 8.90004L229.475 8.18277L229.852 8.2989L231.476 3.63325L233.745 4.45299L234.642 5.93534L235.862 6.55697L236.876 6.20858L237.932 5.23173L242.982 4.96532L243.729 4.6101L244.037 3.87234L242.633 1.37215L242.941 0.279175L244.161 1.1399L245.723 1.52927Z" fill="#E5EBEF" stroke="#E5EBEF" stroke-width="2" mask="url(#path-2-inside-2_167_8)"/>
<mask id="path-3-inside-3_167_8" fill="white">
<path d="M148.229 69.2803L152.889 70.0181L153.896 70.6192L155.178 72.5729L156.123 72.8393L158.488 72.1699L160.509 73.7137L161.722 73.5839L164.621 75.1277L167.862 74.8613L171.302 76.5418L175.592 79.8344L179.032 79.4313L179.642 77.4162L181.526 76.5418L183.014 74.5198L183.486 74.39L184.562 75.4625L185.912 74.5881L186.454 75.5991L187.399 75.3941L188.475 75.7972L190.072 75.1141L191.6 75.7152L193.827 75.5103L199.193 76.9653L200.029 78.1061L200.605 80.4423L201.694 81.3782L202.688 81.1186L207.375 82.5737L208.787 82.4712L209.671 83.407L211.178 83.5573L211.754 82.9357L212.432 82.9903L213.268 83.612L218.943 82.2594L221.135 82.5737L221.862 82.9357L222.177 84.4454L222.595 84.9099L222.643 86.3103L223.219 86.6245L222.383 88.0249L219.676 90.8325L219.779 91.1945L222.383 92.5471L223.164 92.5949L224 91.8708L224.418 91.9254L226.028 93.4283L227.858 93.0116L228.482 93.3258H230.462L231.291 93.9475L231.606 94.9858L231.401 97.1171L232.648 99.7676L233.744 100.492H236.506L237.185 100.963L236.815 103.661L237.233 104.652L237.493 108.074L236.869 109.632L236.088 109.686L235.046 108.286V107.295L235.622 106.1L235.252 105.376L233.642 104.023L230.983 103.456L229.523 102.466L228.221 102.883L228.166 103.456L229.989 107.61L231.428 108.211L231.709 109.133L232.634 110.055L234.861 111.538L236.623 111.811L239.124 111.442L240.611 111.722L242.557 112.924L243.948 111.995L248.67 111.538L251.363 112.275L252.562 113.293H253.583L255.44 110.984L257.942 110.335L262.019 110.151L263.78 109.598L265.075 108.211L267.028 107.193L268.138 106.92L269.619 107.193L269.249 108.949L268.413 110.246L268.694 113.566L267.117 117.542L266.932 120.589L266.377 121.887L263.965 123.362L263.314 124.291L261.094 124.38L259.422 125.856L255.529 126.416L252.747 128.26L248.581 129.182L248.211 130.569L249.691 132.789L250.157 135.283L247.841 134.914L245.058 135.651L241.995 135.836L240.611 135.563L239.864 136.854L238.754 137.134L237.918 137.872L237.733 138.705L234.951 139.163L234.491 140.085L234.581 141.287L235.232 142.401L238.199 144.614V145.632L235.972 147.387L234.581 149.423L234.21 150.618L233.169 149.238L231.305 149.191L229.927 148.487L227.844 147.995L227.577 144.054L227.31 143.439L226.261 142.906L226.213 141.226L224.843 140.604L224.13 140.734L224.082 142.018L223.239 142.769L223.061 144.054L219.285 147.777L218.264 152.114H217.599L215.112 150.96L213.961 149.505L212.316 148.262V147.374L214.091 145.208L217.113 143.439L217.647 142.599L217.113 140.734L216.133 139.627L215.646 139.716L213.296 140.556L213.159 141.048L214.091 142.243V142.995L213.645 143.439L209.609 142.858L207.252 142.906L205.518 142.332L204.408 143.213L204.319 144.587L203.969 145.031L202.592 145.604V146.178L201.612 147.155L199.659 146.848L196.37 147.51L195.705 148.309L195.129 150.434L195.218 152.866L195.883 154.15L195.753 155.305L194.862 156.848L192.772 157.204L190.956 159.123L184.185 158.529L183.301 159.417L183.281 159.847L182.239 160.626L182.109 161.254L181.403 161.719L180.505 161.685L179.292 160.94L177.264 157.846L176.51 157.586L176.003 157.62L175.729 158.167L171.384 159.417L169.74 159.342L163.826 157.504L163.394 157.743L162.887 157.347L163.805 155.045L163.511 153.542L160.852 150.735L159.598 150.694L159.563 149.136L158.871 147.954L156.582 146.656L154.39 147.148L152.793 145.133L152.258 144.901L151.724 145.092L151.148 146.124L149.613 147.107L147.619 148.241L145.584 148.665L145.036 149.368L144.172 149.525L142.685 148.788L142.548 148.029L144.076 147.763L145.858 145.857L145.83 144.505L144.152 142.79L143.919 141.991L144.268 140.727L144.035 138.712L143.041 138.022L141.253 138.179L140.204 138.828L138.8 140.502L137.573 140.269L134.695 138.657L131.995 139.046L129.603 137.837L128.548 135.378L129.35 133.985L130.542 132.885L131.09 131.088L131.035 130.439L129.541 128.301L129.24 127.276L129.96 126.675L129.644 125.582L128.39 126.095L127.294 126.013L126.944 124.011L125.142 121.723L124.984 120.083L124.477 119.851L123.771 120.357L123.97 121.996H123.538L122.6 120.24L121.462 120.042L120.989 120.705L121.503 122.112L120.989 122.816L120.208 122.461L119.982 121.347L120.311 120.452L121.969 118.676L121.86 115.78L122.278 115.513L122.326 113.642L121.387 113.607L120.523 114.543L119.413 115.056L119.029 116.388L118.372 116.961L116.453 117.624L116.569 118.403H118.173L118.92 119.106L118.762 121.497L117.953 123.021L118.378 124.469L118.186 125.084L117.501 125.193L117.001 126.791L115.98 126.518L115.905 127.966L115.158 128.902L113.657 129.934L111.971 129.312L110.566 129.9L108.956 129.428L107.469 130.405L107.51 131.3L107.859 131.409L107.633 132.284L107.859 133.329L108.743 134.306L108.565 135.324L107.435 136.451L109.038 138.479L107.352 141.41L106.646 141.683L105.392 141.096L104.968 138.678L103.672 137.817L101.795 138.637L101.246 140.474L100.424 140.392L99.8005 139.771L99.6429 137.134L98.7041 136.628L98.2313 136.587L97.6077 137.134L97.1896 136.635L95.1133 136.43L93.1602 137.68L92.9204 138.93L91.6321 139.402L90.8508 139.299L89.4803 137.544L88.2262 136.84L86.2664 136.649L84.8615 137.878L82.977 137.66L82.4288 136.492L80.8664 135.44L79.4205 133.295L78.9065 133.172L77.2618 133.213L76.8096 133.547L76.3504 134.914L75.5418 135.904L75.1306 135.337L75.1512 132.823L74.2466 132.079V130.726L74.9525 128.704L74.7606 124.353L71.5124 119.168L69.7855 118.772L68.2984 119.284L67.6474 119.147L67.6337 119.516L65.3655 119.831L62.6244 122.911L61.0551 123.144L59.6091 122.44L58.9444 120.561L56.0457 118.382L55.2508 118.423L54.1132 116.552L53.1744 116.866L51.0569 115.226L49.9673 115.855L49.2204 116.866L48.3569 116.9L46.4382 116.278L45.376 115.363L45.4171 112.808L47.1029 111.244L47.4181 109.215L50.3922 109.017L51.8792 107.924L53.7226 107.535L54.8533 106.756L56.6967 104.023L58.3414 103.436L59.6297 102.035L61.1168 102.07L61.9322 100.512L61.7061 99.0776L62.0145 97.4245L62.8436 96.7072L64.92 95.8123L65.8726 94.6442L66.133 93.7425L68.2436 92.2533L68.8946 90.6002L69.8883 89.6029L72.0058 88.8993L73.7258 89.1725L74.0959 88.0864L74.5893 88.0044L76.7821 88.9812L77.9128 88.708L78.9133 87.0549L78.9887 85.7228L78.1458 83.2841L79.1669 80.0461L83.4362 81.6446L84.8821 81.6036L86.2526 81.0981L86.7666 80.0461L89.542 78.0719L90.9125 77.6416L91.4196 76.5486L94.3595 74.4856L96.3125 74.3285L98.0874 73.215L98.6082 72.6139L98.9577 70.4826L100.472 69.7516L103.775 69.9497L104.789 70.1547L106.749 71.3638L109.579 71.5619L111.197 70.4894L113.76 70.4211L115.85 69.4784L116.864 69.5467L120.037 70.8241L121.99 72.7778L129.48 74.4583L134.133 76.8765L135.956 77.4162L138.382 79.2264L140.944 79.2947L141.554 80.0393L143.782 79.2264L144.59 78.0173L144.857 76.8765L144.59 74.4583L144.857 73.1809L146.344 70.8241L146.276 69.7516L147.016 69.1437L148.229 69.2803Z"/>
</mask>
<path d="M148.229 69.2803L152.889 70.0181L153.896 70.6192L155.178 72.5729L156.123 72.8393L158.488 72.1699L160.509 73.7137L161.722 73.5839L164.621 75.1277L167.862 74.8613L171.302 76.5418L175.592 79.8344L179.032 79.4313L179.642 77.4162L181.526 76.5418L183.014 74.5198L183.486 74.39L184.562 75.4625L185.912 74.5881L186.454 75.5991L187.399 75.3941L188.475 75.7972L190.072 75.1141L191.6 75.7152L193.827 75.5103L199.193 76.9653L200.029 78.1061L200.605 80.4423L201.694 81.3782L202.688 81.1186L207.375 82.5737L208.787 82.4712L209.671 83.407L211.178 83.5573L211.754 82.9357L212.432 82.9903L213.268 83.612L218.943 82.2594L221.135 82.5737L221.862 82.9357L222.177 84.4454L222.595 84.9099L222.643 86.3103L223.219 86.6245L222.383 88.0249L219.676 90.8325L219.779 91.1945L222.383 92.5471L223.164 92.5949L224 91.8708L224.418 91.9254L226.028 93.4283L227.858 93.0116L228.482 93.3258H230.462L231.291 93.9475L231.606 94.9858L231.401 97.1171L232.648 99.7676L233.744 100.492H236.506L237.185 100.963L236.815 103.661L237.233 104.652L237.493 108.074L236.869 109.632L236.088 109.686L235.046 108.286V107.295L235.622 106.1L235.252 105.376L233.642 104.023L230.983 103.456L229.523 102.466L228.221 102.883L228.166 103.456L229.989 107.61L231.428 108.211L231.709 109.133L232.634 110.055L234.861 111.538L236.623 111.811L239.124 111.442L240.611 111.722L242.557 112.924L243.948 111.995L248.67 111.538L251.363 112.275L252.562 113.293H253.583L255.44 110.984L257.942 110.335L262.019 110.151L263.78 109.598L265.075 108.211L267.028 107.193L268.138 106.92L269.619 107.193L269.249 108.949L268.413 110.246L268.694 113.566L267.117 117.542L266.932 120.589L266.377 121.887L263.965 123.362L263.314 124.291L261.094 124.38L259.422 125.856L255.529 126.416L252.747 128.26L248.581 129.182L248.211 130.569L249.691 132.789L250.157 135.283L247.841 134.914L245.058 135.651L241.995 135.836L240.611 135.563L239.864 136.854L238.754 137.134L237.918 137.872L237.733 138.705L234.951 139.163L234.491 140.085L234.581 141.287L235.232 142.401L238.199 144.614V145.632L235.972 147.387L234.581 149.423L234.21 150.618L233.169 149.238L231.305 149.191L229.927 148.487L227.844 147.995L227.577 144.054L227.31 143.439L226.261 142.906L226.213 141.226L224.843 140.604L224.13 140.734L224.082 142.018L223.239 142.769L223.061 144.054L219.285 147.777L218.264 152.114H217.599L215.112 150.96L213.961 149.505L212.316 148.262V147.374L214.091 145.208L217.113 143.439L217.647 142.599L217.113 140.734L216.133 139.627L215.646 139.716L213.296 140.556L213.159 141.048L214.091 142.243V142.995L213.645 143.439L209.609 142.858L207.252 142.906L205.518 142.332L204.408 143.213L204.319 144.587L203.969 145.031L202.592 145.604V146.178L201.612 147.155L199.659 146.848L196.37 147.51L195.705 148.309L195.129 150.434L195.218 152.866L195.883 154.15L195.753 155.305L194.862 156.848L192.772 157.204L190.956 159.123L184.185 158.529L183.301 159.417L183.281 159.847L182.239 160.626L182.109 161.254L181.403 161.719L180.505 161.685L179.292 160.94L177.264 157.846L176.51 157.586L176.003 157.62L175.729 158.167L171.384 159.417L169.74 159.342L163.826 157.504L163.394 157.743L162.887 157.347L163.805 155.045L163.511 153.542L160.852 150.735L159.598 150.694L159.563 149.136L158.871 147.954L156.582 146.656L154.39 147.148L152.793 145.133L152.258 144.901L151.724 145.092L151.148 146.124L149.613 147.107L147.619 148.241L145.584 148.665L145.036 149.368L144.172 149.525L142.685 148.788L142.548 148.029L144.076 147.763L145.858 145.857L145.83 144.505L144.152 142.79L143.919 141.991L144.268 140.727L144.035 138.712L143.041 138.022L141.253 138.179L140.204 138.828L138.8 140.502L137.573 140.269L134.695 138.657L131.995 139.046L129.603 137.837L128.548 135.378L129.35 133.985L130.542 132.885L131.09 131.088L131.035 130.439L129.541 128.301L129.24 127.276L129.96 126.675L129.644 125.582L128.39 126.095L127.294 126.013L126.944 124.011L125.142 121.723L124.984 120.083L124.477 119.851L123.771 120.357L123.97 121.996H123.538L122.6 120.24L121.462 120.042L120.989 120.705L121.503 122.112L120.989 122.816L120.208 122.461L119.982 121.347L120.311 120.452L121.969 118.676L121.86 115.78L122.278 115.513L122.326 113.642L121.387 113.607L120.523 114.543L119.413 115.056L119.029 116.388L118.372 116.961L116.453 117.624L116.569 118.403H118.173L118.92 119.106L118.762 121.497L117.953 123.021L118.378 124.469L118.186 125.084L117.501 125.193L117.001 126.791L115.98 126.518L115.905 127.966L115.158 128.902L113.657 129.934L111.971 129.312L110.566 129.9L108.956 129.428L107.469 130.405L107.51 131.3L107.859 131.409L107.633 132.284L107.859 133.329L108.743 134.306L108.565 135.324L107.435 136.451L109.038 138.479L107.352 141.41L106.646 141.683L105.392 141.096L104.968 138.678L103.672 137.817L101.795 138.637L101.246 140.474L100.424 140.392L99.8005 139.771L99.6429 137.134L98.7041 136.628L98.2313 136.587L97.6077 137.134L97.1896 136.635L95.1133 136.43L93.1602 137.68L92.9204 138.93L91.6321 139.402L90.8508 139.299L89.4803 137.544L88.2262 136.84L86.2664 136.649L84.8615 137.878L82.977 137.66L82.4288 136.492L80.8664 135.44L79.4205 133.295L78.9065 133.172L77.2618 133.213L76.8096 133.547L76.3504 134.914L75.5418 135.904L75.1306 135.337L75.1512 132.823L74.2466 132.079V130.726L74.9525 128.704L74.7606 124.353L71.5124 119.168L69.7855 118.772L68.2984 119.284L67.6474 119.147L67.6337 119.516L65.3655 119.831L62.6244 122.911L61.0551 123.144L59.6091 122.44L58.9444 120.561L56.0457 118.382L55.2508 118.423L54.1132 116.552L53.1744 116.866L51.0569 115.226L49.9673 115.855L49.2204 116.866L48.3569 116.9L46.4382 116.278L45.376 115.363L45.4171 112.808L47.1029 111.244L47.4181 109.215L50.3922 109.017L51.8792 107.924L53.7226 107.535L54.8533 106.756L56.6967 104.023L58.3414 103.436L59.6297 102.035L61.1168 102.07L61.9322 100.512L61.7061 99.0776L62.0145 97.4245L62.8436 96.7072L64.92 95.8123L65.8726 94.6442L66.133 93.7425L68.2436 92.2533L68.8946 90.6002L69.8883 89.6029L72.0058 88.8993L73.7258 89.1725L74.0959 88.0864L74.5893 88.0044L76.7821 88.9812L77.9128 88.708L78.9133 87.0549L78.9887 85.7228L78.1458 83.2841L79.1669 80.0461L83.4362 81.6446L84.8821 81.6036L86.2526 81.0981L86.7666 80.0461L89.542 78.0719L90.9125 77.6416L91.4196 76.5486L94.3595 74.4856L96.3125 74.3285L98.0874 73.215L98.6082 72.6139L98.9577 70.4826L100.472 69.7516L103.775 69.9497L104.789 70.1547L106.749 71.3638L109.579 71.5619L111.197 70.4894L113.76 70.4211L115.85 69.4784L116.864 69.5467L120.037 70.8241L121.99 72.7778L129.48 74.4583L134.133 76.8765L135.956 77.4162L138.382 79.2264L140.944 79.2947L141.554 80.0393L143.782 79.2264L144.59 78.0173L144.857 76.8765L144.59 74.4583L144.857 73.1809L146.344 70.8241L146.276 69.7516L147.016 69.1437L148.229 69.2803Z" fill="#E5EBEF" stroke="#E5EBEF" stroke-width="2" mask="url(#path-3-inside-3_167_8)"/>
<mask id="path-4-inside-4_167_8" fill="white">
<path d="M308.33 54.5046L308.72 55.2083L309.577 55.2834L310.584 55.905L313.312 54.7437L314.134 53.7737L315.326 55.058L318.355 56.0621L319.315 57.1756L320.534 57.0117L320.644 58.5008L321.809 58.7126L321.967 59.5597L326.113 59.0268L326.695 57.121L327.23 56.9092L330.738 57.3327L331.211 57.8109L330.574 61.4109L331.053 61.6773L330.841 62.8386L331.108 64.6967L332.28 67.716L332.116 69.1437L334.829 70.8925V72.7437L337.749 73.8572L338.016 74.2807V75.1824L336.954 77.3547L336.741 78.5707L336.262 79.206L335.302 79.2606L333.925 81.6447L333.98 82.2253L336.049 82.7513L338.283 81.8564L339.983 81.9042L340.88 80.9001H342.155L343.58 81.2485L346.719 82.7786L347.514 82.4644L350.543 82.8879L350.913 83.735L351.872 84.3156L353.729 84.582L354.634 84.0014L355.113 84.1039L355.806 84.7392L357.875 85.4291L358.725 86.4333L361.171 87.1232L361.596 88.0796L362.234 88.2913L363.241 87.5467L363.556 87.7585L363.878 89.0291L363.611 89.7737L362.281 90.6208L362.234 92.1031L361.857 92.8409L361.117 93.2644L357.765 93.3737L356.546 93.0526L356.018 93.3737L355.059 95.3889L355.484 97.3426L355.161 98.4082L355.374 99.467L356.333 99.0913L360.267 99.6788L363.823 99.3031L364.413 98.4082L365.475 97.7661L366.695 98.1896L367.435 98.8796L367.914 99.7813L368.079 101.373L367.647 102.111L366.427 102.91L365.948 104.017L366.112 104.604L367.757 105.554L367.969 106.134L366.852 109.447L366.797 110.663L367.757 110.827L368.874 109.768L369.354 109.871L370.943 111.988L375.089 112.043L379.92 111.251L380.613 111.462L381.517 112.467L382.792 112.781L385.396 111.039L392.125 111.886L395.36 111.251L396.854 110.137L397.751 108.443H398.176L399.136 111.353L397.806 115.165L397.436 115.91L394.674 115.8L395.524 116.067L396.264 117.235L397.751 122.795L399.56 123.745L400.41 123.957L401.582 123.642L402.432 124.011L403.117 125.227L402.165 127.297L402.11 129.046L401.63 129.995L400.465 131.218L399.026 132.065L399.136 133.124L399.615 133.336L404.714 130.897L411.621 129.517L412.526 130.262L414.116 130.795L413.266 131.799V134.073L415.075 135.72L418.262 135.344L418.844 134.975L422.195 135.453L423.895 135.242L427.616 136.779L429.315 137.093L431.597 135.556L434.044 134.654L434.523 134.073L437.497 133.65L437.813 134.073L438.662 134.128L438.025 135.877L438.347 137.359L438.93 138.261L440.259 139.32L441.527 139.62L440.951 141.957L440.328 142.141L438.71 143.869L435.394 144.3L433.201 146.363H432.536L430.809 144.846L428.657 144.573L426.8 144.805L425.841 144.573L424.703 143.712H423.805L423.566 144.375L422.003 144.88L422.072 145.229L419.694 146.055L418.748 147.339L416.898 147.018L415.74 147.572L415.075 148.357L412.252 148.2L409.045 149.136L407.948 148.665L404.912 149.02L403.974 148.747L404.063 147.845L401.541 147.572L400.993 146.834L399.081 146.52L394.853 148.665L392.386 147.223L391.015 147.264L389.288 148.118L388.466 147.886L387.685 147.339L386.472 147.148L385.965 145.666L384.203 144.805L381.579 144.88L381.188 144.45L380.249 144.491L378.29 146.561L377.029 147.333L375.843 147.135L376.021 147.613L374.418 147.421L373.746 148.432L373.63 150.407L371.985 150.441L371.677 151.377L369.758 152.046L368.853 155.011L369.093 158.597L367.839 159.26L368.045 160.407L367.332 161.213L367.092 162.306L363.96 164.533L364.043 166.364L365.256 168.12L363.769 171.399L363.988 172.69L363.255 173.858L362.083 174.288L361.302 175.928L360.205 176.433L359.184 177.957L358.129 180.491L358.286 182.677L357.663 183.729L356.368 184.706L356.292 185.409L353.743 186.892L353.311 188.142L351.434 188.961H349.357L348.268 191.147L347.363 190.403L347.247 187.944L345.917 187.049L343.841 186.694L342.861 186.81L341.477 188.374L339.359 189.856L334.864 188.996L332.863 190.56L332.355 190.328L331.533 189.037L330.238 188.722L329.614 189.119L328.833 190.99L328.011 191.967L328.086 193.723L327.511 194.249L326.442 193.45L323.858 193.484L323.392 192.746L323.118 193.019L322.57 192.432L320.61 193.798L318.657 193.873L317.163 194.987L316.615 194.85L316.032 191.339L315.244 189.972V189.31L315.909 187.438L315.717 186.694L317.321 184.863L317.828 183.066L315.731 181.154L314.504 180.641L313.901 179.555L313.312 177.253L313.079 172.724L312.572 171.515L311.002 170.736L309.008 171.597L306.151 173.626L303.019 177.253L301.614 178.004L300.079 178.264L298.983 179.05L297.187 180.764L296.913 181.932L295.563 182.226L294.549 183.517L292.904 184.569L290.163 183.865H288.751L286.326 184.767L284.838 184.61L283.543 183.674L281.864 184.023L280.727 183.749L277.3 180.628L275.382 179.767L276.163 180.122L274.477 179.692L273.723 180.347L272.086 179.651H271.332L270.4 180.313L266.268 179.958L265.514 178.899L264.177 178.81L263.65 178.414L262.8 178.633L262.005 177.793L261.423 178.1L261.073 177.922L260.758 176.508L261.69 174.295L261.334 173.585L260.58 172.874L259.696 172.785L258.497 171.904L256.674 171.46L255.344 171.679L253.83 169.869L252.411 169.821L251.342 168.536L249.787 168.01L247.793 164.021L246.682 164.246L246.148 163.932L245.305 161.541L244.997 161.234H243.976L242.996 160.524L242.728 158.399L241.31 156.719L240.063 156.275L238.685 154.683L237.356 154.505L236.554 152.067L234.471 151.049L234.265 150.618L235.19 148.494L236.766 146.65L238.253 145.632V144.614L235.286 142.401L234.635 141.287L234.546 140.085L235.005 139.163L237.787 138.705L237.973 137.872L238.809 137.134L239.919 136.854L240.659 135.563L242.05 135.836L245.113 135.651L247.888 134.914L250.212 135.283L249.746 132.789L248.258 130.569L248.635 129.182L252.802 128.26L255.584 126.416L259.476 125.856L261.149 124.38L263.369 124.291L264.02 123.362L266.432 121.887L266.987 120.589L267.172 117.542L268.748 113.566L268.467 110.247L269.303 108.949L269.673 107.193L268.193 106.92L267.076 107.193L265.13 108.211L263.835 109.598L262.074 110.151L257.996 110.335L255.495 110.984L253.638 113.293H252.617L251.411 112.275L248.724 111.538L243.996 111.995L242.605 112.924L240.659 111.722L239.179 111.442L236.677 111.811L234.916 111.538L232.689 110.055L231.764 109.133L231.483 108.211L230.044 107.61L228.221 103.456L228.276 102.883L229.578 102.466L231.038 103.456L233.69 104.023L235.307 105.376L235.67 106.1L235.101 107.296V108.286L236.143 109.686L236.924 109.632L237.548 108.074L237.287 104.652L236.869 103.661L237.232 100.963L236.561 100.492H233.799L232.703 99.7676L231.449 97.1171L231.661 94.9858L231.346 93.9475L230.517 93.3259H228.536L227.906 93.0116L226.083 93.4283L224.466 91.9255L224.055 91.8708L223.219 92.5949L222.437 92.5471L220.251 91.5566L219.73 90.8325L222.437 88.0249L223.157 86.5631L225.178 86.0985L225.72 86.5631H229.222L230.469 86.0166L231.25 86.1737L232.415 85.0124L233.196 86.2488L235.067 87.9566L235.533 89.0428L236.54 89.275L239.192 88.8105L239.501 89.1999L238.336 92.5403L239.343 93.7016L240.2 93.0799L241.447 89.357L242.228 88.6602L243.16 88.2708L244.798 88.7354L246.12 88.5031L246.771 84.7392L248.642 83.8033L249.108 82.642L248.485 80.3126L248.875 79.5407L249.807 78.7619L250.821 78.5297L251.445 77.5187L252.069 77.2864L251.836 76.5896L249.574 75.5786L248.8 74.8819L250.122 68.7475L252.226 69.1369L254.09 68.9798L255.961 68.365L257.599 68.7475L259.778 68.2079L261.409 68.283L264.808 67.0807L266.754 67.3881L268.618 65.9194L270.256 63.8223L271.421 63.2758L273.991 62.9684L275.238 63.2758L275.937 62.7361L275.628 60.9464L274.696 59.71L274.148 58.2344L272.593 56.4515L272.36 55.3585L277.575 54.894L278.356 54.5046L281.858 55.0511L283.413 54.1972L284.194 54.4295L284.969 55.5976L286.915 55.5157L289.019 54.0401L289.642 54.7437L290.574 55.0511L292.753 54.5046L296.18 55.7479L298.051 54.976L300.23 54.894L301.011 53.8898L302.8 55.1263L303.889 54.7437L305.212 54.976L306.534 54.5866L307.391 54.1972L307.706 53.6508L308.405 53.8079L308.33 54.5046Z"/>
</mask>
<path d="M308.33 54.5046L308.72 55.2083L309.577 55.2834L310.584 55.905L313.312 54.7437L314.134 53.7737L315.326 55.058L318.355 56.0621L319.315 57.1756L320.534 57.0117L320.644 58.5008L321.809 58.7126L321.967 59.5597L326.113 59.0268L326.695 57.121L327.23 56.9092L330.738 57.3327L331.211 57.8109L330.574 61.4109L331.053 61.6773L330.841 62.8386L331.108 64.6967L332.28 67.716L332.116 69.1437L334.829 70.8925V72.7437L337.749 73.8572L338.016 74.2807V75.1824L336.954 77.3547L336.741 78.5707L336.262 79.206L335.302 79.2606L333.925 81.6447L333.98 82.2253L336.049 82.7513L338.283 81.8564L339.983 81.9042L340.88 80.9001H342.155L343.58 81.2485L346.719 82.7786L347.514 82.4644L350.543 82.8879L350.913 83.735L351.872 84.3156L353.729 84.582L354.634 84.0014L355.113 84.1039L355.806 84.7392L357.875 85.4291L358.725 86.4333L361.171 87.1232L361.596 88.0796L362.234 88.2913L363.241 87.5467L363.556 87.7585L363.878 89.0291L363.611 89.7737L362.281 90.6208L362.234 92.1031L361.857 92.8409L361.117 93.2644L357.765 93.3737L356.546 93.0526L356.018 93.3737L355.059 95.3889L355.484 97.3426L355.161 98.4082L355.374 99.467L356.333 99.0913L360.267 99.6788L363.823 99.3031L364.413 98.4082L365.475 97.7661L366.695 98.1896L367.435 98.8796L367.914 99.7813L368.079 101.373L367.647 102.111L366.427 102.91L365.948 104.017L366.112 104.604L367.757 105.554L367.969 106.134L366.852 109.447L366.797 110.663L367.757 110.827L368.874 109.768L369.354 109.871L370.943 111.988L375.089 112.043L379.92 111.251L380.613 111.462L381.517 112.467L382.792 112.781L385.396 111.039L392.125 111.886L395.36 111.251L396.854 110.137L397.751 108.443H398.176L399.136 111.353L397.806 115.165L397.436 115.91L394.674 115.8L395.524 116.067L396.264 117.235L397.751 122.795L399.56 123.745L400.41 123.957L401.582 123.642L402.432 124.011L403.117 125.227L402.165 127.297L402.11 129.046L401.63 129.995L400.465 131.218L399.026 132.065L399.136 133.124L399.615 133.336L404.714 130.897L411.621 129.517L412.526 130.262L414.116 130.795L413.266 131.799V134.073L415.075 135.72L418.262 135.344L418.844 134.975L422.195 135.453L423.895 135.242L427.616 136.779L429.315 137.093L431.597 135.556L434.044 134.654L434.523 134.073L437.497 133.65L437.813 134.073L438.662 134.128L438.025 135.877L438.347 137.359L438.93 138.261L440.259 139.32L441.527 139.62L440.951 141.957L440.328 142.141L438.71 143.869L435.394 144.3L433.201 146.363H432.536L430.809 144.846L428.657 144.573L426.8 144.805L425.841 144.573L424.703 143.712H423.805L423.566 144.375L422.003 144.88L422.072 145.229L419.694 146.055L418.748 147.339L416.898 147.018L415.74 147.572L415.075 148.357L412.252 148.2L409.045 149.136L407.948 148.665L404.912 149.02L403.974 148.747L404.063 147.845L401.541 147.572L400.993 146.834L399.081 146.52L394.853 148.665L392.386 147.223L391.015 147.264L389.288 148.118L388.466 147.886L387.685 147.339L386.472 147.148L385.965 145.666L384.203 144.805L381.579 144.88L381.188 144.45L380.249 144.491L378.29 146.561L377.029 147.333L375.843 147.135L376.021 147.613L374.418 147.421L373.746 148.432L373.63 150.407L371.985 150.441L371.677 151.377L369.758 152.046L368.853 155.011L369.093 158.597L367.839 159.26L368.045 160.407L367.332 161.213L367.092 162.306L363.96 164.533L364.043 166.364L365.256 168.12L363.769 171.399L363.988 172.69L363.255 173.858L362.083 174.288L361.302 175.928L360.205 176.433L359.184 177.957L358.129 180.491L358.286 182.677L357.663 183.729L356.368 184.706L356.292 185.409L353.743 186.892L353.311 188.142L351.434 188.961H349.357L348.268 191.147L347.363 190.403L347.247 187.944L345.917 187.049L343.841 186.694L342.861 186.81L341.477 188.374L339.359 189.856L334.864 188.996L332.863 190.56L332.355 190.328L331.533 189.037L330.238 188.722L329.614 189.119L328.833 190.99L328.011 191.967L328.086 193.723L327.511 194.249L326.442 193.45L323.858 193.484L323.392 192.746L323.118 193.019L322.57 192.432L320.61 193.798L318.657 193.873L317.163 194.987L316.615 194.85L316.032 191.339L315.244 189.972V189.31L315.909 187.438L315.717 186.694L317.321 184.863L317.828 183.066L315.731 181.154L314.504 180.641L313.901 179.555L313.312 177.253L313.079 172.724L312.572 171.515L311.002 170.736L309.008 171.597L306.151 173.626L303.019 177.253L301.614 178.004L300.079 178.264L298.983 179.05L297.187 180.764L296.913 181.932L295.563 182.226L294.549 183.517L292.904 184.569L290.163 183.865H288.751L286.326 184.767L284.838 184.61L283.543 183.674L281.864 184.023L280.727 183.749L277.3 180.628L275.382 179.767L276.163 180.122L274.477 179.692L273.723 180.347L272.086 179.651H271.332L270.4 180.313L266.268 179.958L265.514 178.899L264.177 178.81L263.65 178.414L262.8 178.633L262.005 177.793L261.423 178.1L261.073 177.922L260.758 176.508L261.69 174.295L261.334 173.585L260.58 172.874L259.696 172.785L258.497 171.904L256.674 171.46L255.344 171.679L253.83 169.869L252.411 169.821L251.342 168.536L249.787 168.01L247.793 164.021L246.682 164.246L246.148 163.932L245.305 161.541L244.997 161.234H243.976L242.996 160.524L242.728 158.399L241.31 156.719L240.063 156.275L238.685 154.683L237.356 154.505L236.554 152.067L234.471 151.049L234.265 150.618L235.19 148.494L236.766 146.65L238.253 145.632V144.614L235.286 142.401L234.635 141.287L234.546 140.085L235.005 139.163L237.787 138.705L237.973 137.872L238.809 137.134L239.919 136.854L240.659 135.563L242.05 135.836L245.113 135.651L247.888 134.914L250.212 135.283L249.746 132.789L248.258 130.569L248.635 129.182L252.802 128.26L255.584 126.416L259.476 125.856L261.149 124.38L263.369 124.291L264.02 123.362L266.432 121.887L266.987 120.589L267.172 117.542L268.748 113.566L268.467 110.247L269.303 108.949L269.673 107.193L268.193 106.92L267.076 107.193L265.13 108.211L263.835 109.598L262.074 110.151L257.996 110.335L255.495 110.984L253.638 113.293H252.617L251.411 112.275L248.724 111.538L243.996 111.995L242.605 112.924L240.659 111.722L239.179 111.442L236.677 111.811L234.916 111.538L232.689 110.055L231.764 109.133L231.483 108.211L230.044 107.61L228.221 103.456L228.276 102.883L229.578 102.466L231.038 103.456L233.69 104.023L235.307 105.376L235.67 106.1L235.101 107.296V108.286L236.143 109.686L236.924 109.632L237.548 108.074L237.287 104.652L236.869 103.661L237.232 100.963L236.561 100.492H233.799L232.703 99.7676L231.449 97.1171L231.661 94.9858L231.346 93.9475L230.517 93.3259H228.536L227.906 93.0116L226.083 93.4283L224.466 91.9255L224.055 91.8708L223.219 92.5949L222.437 92.5471L220.251 91.5566L219.73 90.8325L222.437 88.0249L223.157 86.5631L225.178 86.0985L225.72 86.5631H229.222L230.469 86.0166L231.25 86.1737L232.415 85.0124L233.196 86.2488L235.067 87.9566L235.533 89.0428L236.54 89.275L239.192 88.8105L239.501 89.1999L238.336 92.5403L239.343 93.7016L240.2 93.0799L241.447 89.357L242.228 88.6602L243.16 88.2708L244.798 88.7354L246.12 88.5031L246.771 84.7392L248.642 83.8033L249.108 82.642L248.485 80.3126L248.875 79.5407L249.807 78.7619L250.821 78.5297L251.445 77.5187L252.069 77.2864L251.836 76.5896L249.574 75.5786L248.8 74.8819L250.122 68.7475L252.226 69.1369L254.09 68.9798L255.961 68.365L257.599 68.7475L259.778 68.2079L261.409 68.283L264.808 67.0807L266.754 67.3881L268.618 65.9194L270.256 63.8223L271.421 63.2758L273.991 62.9684L275.238 63.2758L275.937 62.7361L275.628 60.9464L274.696 59.71L274.148 58.2344L272.593 56.4515L272.36 55.3585L277.575 54.894L278.356 54.5046L281.858 55.0511L283.413 54.1972L284.194 54.4295L284.969 55.5976L286.915 55.5157L289.019 54.0401L289.642 54.7437L290.574 55.0511L292.753 54.5046L296.18 55.7479L298.051 54.976L300.23 54.894L301.011 53.8898L302.8 55.1263L303.889 54.7437L305.212 54.976L306.534 54.5866L307.391 54.1972L307.706 53.6508L308.405 53.8079L308.33 54.5046Z" fill="#E5EBEF" stroke="#E5EBEF" stroke-width="2" mask="url(#path-4-inside-4_167_8)"/>
<mask id="path-5-inside-5_167_8" fill="white">
<path d="M273.621 180.347L273.594 180.73L273.237 180.744V183.285L271.983 184.528L272.065 184.999L275.17 187.766L276.17 189.481L277.733 190.56L277.603 191.496L276.938 191.557L275.684 192.377L274.807 192.254L273.32 190.915L272.792 190.813L267.961 190.915L267.536 191.181L267.68 193.012L265.877 195.649L265.096 195.895L264.582 195.253L263.253 195.068L261.965 195.342L259.299 199.474L256.948 200.82L255.386 203.088L252.446 205.308L251.493 206.456L250.027 207.064H249.328L247.957 206.053L247.012 206.49L245.682 204.919L239.81 206.326L238.953 206.756L238.912 207.146L237.973 207.884L236.918 208.198L235.273 207.146L234.841 207.262L232.971 210.479L230.298 211.361L230.264 212.064L231.977 212.802L232.141 213.895L229.517 217.099L229.01 218.363L229.558 221.273L228.379 222.325L227.756 222.249L226.385 223.301L225.487 227.045L225.796 228.841L228.03 229.545L228.921 230.46L230.38 234.463L231.004 237.271L230.846 239.532H229.441L229.126 239.922L228.736 241.739L227.68 242.558L228.03 243.453L227.523 244.587L227.481 246.657L226.426 247.203L220.629 248.064L218.477 247.941L215.935 247.203L214.756 247.866L212.926 247.75L211.946 248.372L210.418 247.477L207.286 247.552L205.566 248.611L203.606 248.877L202.003 249.738L201.612 250.325L201.688 251.849L200.749 253.133L197.268 252.942L196.486 253.953L193.663 254.97L192.217 254.888L190.031 253.912L188.935 253.953L186.235 255.005L184.199 254.54L181.965 255.319L180.636 254.308L179.814 254.342L178.094 255.476L176.25 254.656L174.023 255.517L172.221 254.069L169.521 253.092L165.683 252.545L164.786 253.447L164.354 254.581L163.573 255.087L162.668 255.128L161.887 253.563L159.886 253.447L158.673 254.11L158.755 255.435L158.481 255.674H155.781L153.938 256.528L151.985 256.685L151.313 257.273L150.635 258.126L149.655 260.9L147.085 265.702L146.407 265.818L145.941 265.429L145.351 262.737L144.878 262.225L144.056 262.15L143.508 260.627L140.732 260.428L139.828 260.039L139.204 259.301L138.265 254.97L137.793 254.499L136.621 254.581L134.901 255.592H134.078L131.529 257.505L130.556 258.898L126.794 259.336L126.246 259.807L125.225 259.534L124.108 258.338L122.956 255.94L123.313 254.854L124.916 253.365L125.622 251.883L124.258 248.29L123.429 247.846L118.297 249.021L115.871 248.433L115.322 249.055L113.719 248.624L112.506 245.776L112.424 244.765L113.644 242.695L113.705 240.98L113.28 240.106L110.875 238.589L111.54 237.674L111.8 235.7L113.65 232.455L114.226 232.073L118.118 231.69L118.948 231.185L120.099 228.958L122.84 229.333L123.162 230.419L123.929 230.993L125.074 231.499L127.376 231.82L128.966 233.152L131.139 232.838L132.989 233.09L135.415 234.996L138.032 235.065L139.122 236.212L141.61 235.065L142.761 234.935L144.995 235.126L146.461 235.953L148.634 235.317L149.271 234.812L151.628 234.238L153.225 232.325L154.883 232.134L155.397 231.499L159.098 230.29L160.756 229.21L160.948 227.871L161.585 227.427L161.14 225.706L159.612 223.862L158.591 223.165L159.29 222.4L158.591 221.826L158.399 221.191L157.309 220.747L156.74 220.938L155.973 221.894H155.075L153.993 220.494L152.649 217.119L150.868 215.972L148.181 215.466L148.12 214.571L149.202 211.839L149.141 211.012L148.25 209.735L148.826 207.829L148.565 207.125L147.928 206.681L145.824 205.985L147.866 204.202V203.314L147.544 202.419L146.777 201.722L143.844 200.574L143.398 200.062L145.248 198.73V198.218L144.227 196.947L144.926 194.085L144.673 193.32L144.035 192.814H143.076L138.67 194.023L136.333 195.137L133.976 193.682L133.544 193.21L133.66 192.903L135.634 190.587L136.518 190.403L137.847 188.647L137.573 187.711L138.786 186.386L139.026 184.781L141.253 184.863L141.335 184.234L143.104 183.141L143.426 182.622L143.179 182.014L143.885 181.816L144.824 182.404H146.742L146.9 184.234L148.229 185.525L148.976 185.874L149.442 185.484L150.347 185.525L151.875 186.693L152.574 187.711L153.239 187.903L153.479 188.449L154.924 188.06L154.575 186.386L154.733 185.6L155.904 184.227L155.946 181.625L155.692 180.86L154.219 180.607L154.417 179.555L154.924 179.049L153.753 176.433L152.183 175.538L152.54 174.869L153.945 174.91L154.26 173.817L154.966 174.049L156.706 176.235L157.097 177.799L158.152 178.694L158.817 178.462L158.892 177.328L159.523 177.055L160.229 178.346L163.669 179.596L165.121 180.723L166.293 180.88L167.588 180.45L168.095 178.694L168.137 175.771L168.801 175.73L169.308 176.392L171.186 176.44L172.008 175.771L171.933 174.869L172.913 171.672L171.851 170.579L171.933 170.073L172.639 169.643L173.379 170.504L174.044 170.422L176.394 169.527L177.292 167.457L180.574 166.596L180.938 165.975L182.308 165.155L184.384 164.451L188.263 163.905L189.476 163.515L190.34 162.737L191.436 160.667L190.901 159.123L192.717 157.204L194.808 156.848L195.698 155.304L195.829 154.15L195.164 152.866L195.075 150.434L195.65 148.309L196.315 147.51L199.604 146.848L201.557 147.155L202.537 146.178V145.604L203.915 145.03L204.264 144.586L204.353 143.213L205.464 142.332L207.197 142.906L209.555 142.858L213.591 143.439L214.036 142.995V142.243L213.104 141.048L213.241 140.556L216.078 139.627L217.415 141.267L217.593 142.599L217.058 143.439L214.036 145.208L212.261 147.374V148.262L213.906 149.505L215.057 150.96L217.545 152.114H218.21L218.525 151.718L218.833 148.617L219.676 147.066L223.007 144.054L223.185 142.769L224.028 142.018L224.076 140.734L225.672 140.823L226.166 141.226L226.207 142.906L227.255 143.439L227.523 144.054L227.79 147.995L229.873 148.487L231.25 149.191L233.114 149.238L234.362 151.049L236.445 152.067L237.247 154.505L238.583 154.683L239.953 156.275L241.201 156.719L242.619 158.399L242.886 160.523L243.866 161.234H244.887L245.196 161.541L246.039 163.932L246.573 164.246L247.683 164.021L249.684 168.01L251.24 168.536L252.302 169.821L253.728 169.868L255.235 171.679L256.565 171.46L260.477 172.874L261.588 174.295L260.656 176.508L260.964 177.922L261.32 178.1L261.896 177.793L262.698 178.633L263.541 178.414L264.075 178.81L265.405 178.899L266.158 179.958L270.291 180.313L271.223 179.651H271.976L273.621 180.347Z"/>
</mask>
<path d="M273.621 180.347L273.594 180.73L273.237 180.744V183.285L271.983 184.528L272.065 184.999L275.17 187.766L276.17 189.481L277.733 190.56L277.603 191.496L276.938 191.557L275.684 192.377L274.807 192.254L273.32 190.915L272.792 190.813L267.961 190.915L267.536 191.181L267.68 193.012L265.877 195.649L265.096 195.895L264.582 195.253L263.253 195.068L261.965 195.342L259.299 199.474L256.948 200.82L255.386 203.088L252.446 205.308L251.493 206.456L250.027 207.064H249.328L247.957 206.053L247.012 206.49L245.682 204.919L239.81 206.326L238.953 206.756L238.912 207.146L237.973 207.884L236.918 208.198L235.273 207.146L234.841 207.262L232.971 210.479L230.298 211.361L230.264 212.064L231.977 212.802L232.141 213.895L229.517 217.099L229.01 218.363L229.558 221.273L228.379 222.325L227.756 222.249L226.385 223.301L225.487 227.045L225.796 228.841L228.03 229.545L228.921 230.46L230.38 234.463L231.004 237.271L230.846 239.532H229.441L229.126 239.922L228.736 241.739L227.68 242.558L228.03 243.453L227.523 244.587L227.481 246.657L226.426 247.203L220.629 248.064L218.477 247.941L215.935 247.203L214.756 247.866L212.926 247.75L211.946 248.372L210.418 247.477L207.286 247.552L205.566 248.611L203.606 248.877L202.003 249.738L201.612 250.325L201.688 251.849L200.749 253.133L197.268 252.942L196.486 253.953L193.663 254.97L192.217 254.888L190.031 253.912L188.935 253.953L186.235 255.005L184.199 254.54L181.965 255.319L180.636 254.308L179.814 254.342L178.094 255.476L176.25 254.656L174.023 255.517L172.221 254.069L169.521 253.092L165.683 252.545L164.786 253.447L164.354 254.581L163.573 255.087L162.668 255.128L161.887 253.563L159.886 253.447L158.673 254.11L158.755 255.435L158.481 255.674H155.781L153.938 256.528L151.985 256.685L151.313 257.273L150.635 258.126L149.655 260.9L147.085 265.702L146.407 265.818L145.941 265.429L145.351 262.737L144.878 262.225L144.056 262.15L143.508 260.627L140.732 260.428L139.828 260.039L139.204 259.301L138.265 254.97L137.793 254.499L136.621 254.581L134.901 255.592H134.078L131.529 257.505L130.556 258.898L126.794 259.336L126.246 259.807L125.225 259.534L124.108 258.338L122.956 255.94L123.313 254.854L124.916 253.365L125.622 251.883L124.258 248.29L123.429 247.846L118.297 249.021L115.871 248.433L115.322 249.055L113.719 248.624L112.506 245.776L112.424 244.765L113.644 242.695L113.705 240.98L113.28 240.106L110.875 238.589L111.54 237.674L111.8 235.7L113.65 232.455L114.226 232.073L118.118 231.69L118.948 231.185L120.099 228.958L122.84 229.333L123.162 230.419L123.929 230.993L125.074 231.499L127.376 231.82L128.966 233.152L131.139 232.838L132.989 233.09L135.415 234.996L138.032 235.065L139.122 236.212L141.61 235.065L142.761 234.935L144.995 235.126L146.461 235.953L148.634 235.317L149.271 234.812L151.628 234.238L153.225 232.325L154.883 232.134L155.397 231.499L159.098 230.29L160.756 229.21L160.948 227.871L161.585 227.427L161.14 225.706L159.612 223.862L158.591 223.165L159.29 222.4L158.591 221.826L158.399 221.191L157.309 220.747L156.74 220.938L155.973 221.894H155.075L153.993 220.494L152.649 217.119L150.868 215.972L148.181 215.466L148.12 214.571L149.202 211.839L149.141 211.012L148.25 209.735L148.826 207.829L148.565 207.125L147.928 206.681L145.824 205.985L147.866 204.202V203.314L147.544 202.419L146.777 201.722L143.844 200.574L143.398 200.062L145.248 198.73V198.218L144.227 196.947L144.926 194.085L144.673 193.32L144.035 192.814H143.076L138.67 194.023L136.333 195.137L133.976 193.682L133.544 193.21L133.66 192.903L135.634 190.587L136.518 190.403L137.847 188.647L137.573 187.711L138.786 186.386L139.026 184.781L141.253 184.863L141.335 184.234L143.104 183.141L143.426 182.622L143.179 182.014L143.885 181.816L144.824 182.404H146.742L146.9 184.234L148.229 185.525L148.976 185.874L149.442 185.484L150.347 185.525L151.875 186.693L152.574 187.711L153.239 187.903L153.479 188.449L154.924 188.06L154.575 186.386L154.733 185.6L155.904 184.227L155.946 181.625L155.692 180.86L154.219 180.607L154.417 179.555L154.924 179.049L153.753 176.433L152.183 175.538L152.54 174.869L153.945 174.91L154.26 173.817L154.966 174.049L156.706 176.235L157.097 177.799L158.152 178.694L158.817 178.462L158.892 177.328L159.523 177.055L160.229 178.346L163.669 179.596L165.121 180.723L166.293 180.88L167.588 180.45L168.095 178.694L168.137 175.771L168.801 175.73L169.308 176.392L171.186 176.44L172.008 175.771L171.933 174.869L172.913 171.672L171.851 170.579L171.933 170.073L172.639 169.643L173.379 170.504L174.044 170.422L176.394 169.527L177.292 167.457L180.574 166.596L180.938 165.975L182.308 165.155L184.384 164.451L188.263 163.905L189.476 163.515L190.34 162.737L191.436 160.667L190.901 159.123L192.717 157.204L194.808 156.848L195.698 155.304L195.829 154.15L195.164 152.866L195.075 150.434L195.65 148.309L196.315 147.51L199.604 146.848L201.557 147.155L202.537 146.178V145.604L203.915 145.03L204.264 144.586L204.353 143.213L205.464 142.332L207.197 142.906L209.555 142.858L213.591 143.439L214.036 142.995V142.243L213.104 141.048L213.241 140.556L216.078 139.627L217.415 141.267L217.593 142.599L217.058 143.439L214.036 145.208L212.261 147.374V148.262L213.906 149.505L215.057 150.96L217.545 152.114H218.21L218.525 151.718L218.833 148.617L219.676 147.066L223.007 144.054L223.185 142.769L224.028 142.018L224.076 140.734L225.672 140.823L226.166 141.226L226.207 142.906L227.255 143.439L227.523 144.054L227.79 147.995L229.873 148.487L231.25 149.191L233.114 149.238L234.362 151.049L236.445 152.067L237.247 154.505L238.583 154.683L239.953 156.275L241.201 156.719L242.619 158.399L242.886 160.523L243.866 161.234H244.887L245.196 161.541L246.039 163.932L246.573 164.246L247.683 164.021L249.684 168.01L251.24 168.536L252.302 169.821L253.728 169.868L255.235 171.679L256.565 171.46L260.477 172.874L261.588 174.295L260.656 176.508L260.964 177.922L261.32 178.1L261.896 177.793L262.698 178.633L263.541 178.414L264.075 178.81L265.405 178.899L266.158 179.958L270.291 180.313L271.223 179.651H271.976L273.621 180.347Z" fill="#E5EBEF" stroke="#E5EBEF" stroke-width="2" mask="url(#path-5-inside-5_167_8)"/>
<mask id="path-6-inside-6_167_8" fill="white">
<path d="M132.454 30.5001L133.448 30.9305L134.585 32.0645L138.066 32.8432L139.279 34.3256L140.492 34.8379L143.042 35.0292L144.72 33.8952L148.01 33.7039L153.417 35.3229L157.919 37.7411L159.324 39.0322L160.53 39.5787L161.119 39.1073L165.347 38.8751L169.692 41.02L170.98 41.1362L172.508 41.9559L175.681 46.4849L178.265 46.9153L179.087 47.2227L179.437 47.7692L180.649 48.1244L183.274 48.4318L185.049 47.9126L186.406 48.3157L190.716 47.8102L194.238 49.1764L198.898 49.6819L199.481 50.7339L199.817 54.129L201.701 55.0307L207.396 56.0075L208.026 55.9665L209.335 55.1195L210.075 55.4952L210.617 55.2902L211.021 54.1495L211.425 51.5263L212.371 51.3214L213.111 52.066L213.584 53.3434L214.324 53.4732L215.201 52.7354L215.941 53.0018L216.75 53.8147V55.0921L216.284 56.4993L214.392 58.7878L214.255 60.9396L213.447 61.8823L208.389 63.631L205.354 62.62L202.517 62.825L200.701 64.4371L197.864 63.6993L195.438 64.5737L194.423 64.1639L193.683 64.3005L190.648 66.9236L187.68 65.9809L187.139 66.4523L186.94 69.9498L187.879 71.2272L190.106 72.0333L189.77 73.9187L190.106 75.0595L188.42 75.7972L187.345 75.3942L186.399 75.5991L185.858 74.5881L184.508 75.4625L183.432 74.39L182.959 74.5198L181.472 76.5418L179.587 77.4162L178.977 79.4314L176.483 79.8344H175.537L171.247 76.5418L167.807 74.8614L164.566 75.1278L161.667 73.584L160.454 73.7138L158.433 72.1699L156.069 72.8394L155.123 72.573L153.841 70.6193L151.683 69.6151L149.798 69.6834L146.961 69.1437L146.221 69.7517L146.29 70.8242L144.803 73.1809L144.535 74.4584L144.803 76.8766L144.535 78.0174L143.727 79.2265L141.5 80.0394L140.89 79.2948L138.327 79.2265L135.901 77.4162L134.078 76.8766L129.425 74.4584L121.935 72.7779L119.982 70.8242L116.809 69.5468L115.802 69.4785L113.705 70.4212L111.142 70.4895L109.525 71.562H107.976L106.695 71.3639L104.735 70.1548L103.72 69.9498L100.417 69.7517L98.9098 70.4826L97.6695 68.8637L96.4565 68.6656L95.086 67.7707L93.873 66.4045L91.5225 64.9973L88.1578 64.6489L87.452 64.8811L86.1568 66.5616L84.9439 67.1081L84.0051 66.951L82.751 66.1312L81.497 66.7529L80.7569 66.7187L80.3663 65.2363L79.5028 64.6079L79.1533 63.3236L80.4416 60.0037L81.7711 59.7305L81.819 59.0747L82.7168 58.6785L83.7515 57.5718L83.498 56.8819L82.518 56.3013L82.4906 55.5908L84.3203 54.3885L85.0261 51.499L86.1226 51.3419L88.7061 52.7832L89.8025 52.6671L89.919 51.3828L89.6038 50.7954L88.1921 48.7665L86.4309 47.0861L86.1226 46.3483L86.3967 45.3305L87.1779 44.3946L88.1167 44.1624L91.7967 44.825L94.5378 44.0462L94.6131 39.1073L96.4154 38.6975L97.8271 37.4474L98.9578 35.5005L99.1565 33.5058L99.9788 33.2736L101.973 33.7791L103.426 33.5058L105.461 31.518L107.455 31.477L108.202 31.8664L109.415 31.9073L112.348 30.9305L114.096 32.2694L115.953 32.8842L116.679 31.8322L118.166 31.2037L118.673 30.3089L121.455 30.5821L126.389 28.7855L130.343 29.4481L132.454 30.5001Z"/>
</mask>
<path d="M132.454 30.5001L133.448 30.9305L134.585 32.0645L138.066 32.8432L139.279 34.3256L140.492 34.8379L143.042 35.0292L144.72 33.8952L148.01 33.7039L153.417 35.3229L157.919 37.7411L159.324 39.0322L160.53 39.5787L161.119 39.1073L165.347 38.8751L169.692 41.02L170.98 41.1362L172.508 41.9559L175.681 46.4849L178.265 46.9153L179.087 47.2227L179.437 47.7692L180.649 48.1244L183.274 48.4318L185.049 47.9126L186.406 48.3157L190.716 47.8102L194.238 49.1764L198.898 49.6819L199.481 50.7339L199.817 54.129L201.701 55.0307L207.396 56.0075L208.026 55.9665L209.335 55.1195L210.075 55.4952L210.617 55.2902L211.021 54.1495L211.425 51.5263L212.371 51.3214L213.111 52.066L213.584 53.3434L214.324 53.4732L215.201 52.7354L215.941 53.0018L216.75 53.8147V55.0921L216.284 56.4993L214.392 58.7878L214.255 60.9396L213.447 61.8823L208.389 63.631L205.354 62.62L202.517 62.825L200.701 64.4371L197.864 63.6993L195.438 64.5737L194.423 64.1639L193.683 64.3005L190.648 66.9236L187.68 65.9809L187.139 66.4523L186.94 69.9498L187.879 71.2272L190.106 72.0333L189.77 73.9187L190.106 75.0595L188.42 75.7972L187.345 75.3942L186.399 75.5991L185.858 74.5881L184.508 75.4625L183.432 74.39L182.959 74.5198L181.472 76.5418L179.587 77.4162L178.977 79.4314L176.483 79.8344H175.537L171.247 76.5418L167.807 74.8614L164.566 75.1278L161.667 73.584L160.454 73.7138L158.433 72.1699L156.069 72.8394L155.123 72.573L153.841 70.6193L151.683 69.6151L149.798 69.6834L146.961 69.1437L146.221 69.7517L146.29 70.8242L144.803 73.1809L144.535 74.4584L144.803 76.8766L144.535 78.0174L143.727 79.2265L141.5 80.0394L140.89 79.2948L138.327 79.2265L135.901 77.4162L134.078 76.8766L129.425 74.4584L121.935 72.7779L119.982 70.8242L116.809 69.5468L115.802 69.4785L113.705 70.4212L111.142 70.4895L109.525 71.562H107.976L106.695 71.3639L104.735 70.1548L103.72 69.9498L100.417 69.7517L98.9098 70.4826L97.6695 68.8637L96.4565 68.6656L95.086 67.7707L93.873 66.4045L91.5225 64.9973L88.1578 64.6489L87.452 64.8811L86.1568 66.5616L84.9439 67.1081L84.0051 66.951L82.751 66.1312L81.497 66.7529L80.7569 66.7187L80.3663 65.2363L79.5028 64.6079L79.1533 63.3236L80.4416 60.0037L81.7711 59.7305L81.819 59.0747L82.7168 58.6785L83.7515 57.5718L83.498 56.8819L82.518 56.3013L82.4906 55.5908L84.3203 54.3885L85.0261 51.499L86.1226 51.3419L88.7061 52.7832L89.8025 52.6671L89.919 51.3828L89.6038 50.7954L88.1921 48.7665L86.4309 47.0861L86.1226 46.3483L86.3967 45.3305L87.1779 44.3946L88.1167 44.1624L91.7967 44.825L94.5378 44.0462L94.6131 39.1073L96.4154 38.6975L97.8271 37.4474L98.9578 35.5005L99.1565 33.5058L99.9788 33.2736L101.973 33.7791L103.426 33.5058L105.461 31.518L107.455 31.477L108.202 31.8664L109.415 31.9073L112.348 30.9305L114.096 32.2694L115.953 32.8842L116.679 31.8322L118.166 31.2037L118.673 30.3089L121.455 30.5821L126.389 28.7855L130.343 29.4481L132.454 30.5001Z" fill="#E5EBEF" stroke="#E5EBEF" stroke-width="2" mask="url(#path-6-inside-6_167_8)"/>
<mask id="path-7-inside-7_167_8" fill="white">
<path d="M441.527 139.62L440.26 139.32L438.93 138.261L438.348 137.359L438.026 135.877L438.663 134.128L437.813 134.073L437.498 133.65L434.524 134.073L434.044 134.654L431.598 135.556L429.316 137.093L427.616 136.779L423.895 135.242L422.196 135.453L418.845 134.975L418.262 135.344L415.076 135.72L413.267 134.073V131.799L414.116 130.795L412.527 130.262L411.622 129.517L404.714 130.897L399.616 133.336L399.136 133.124L399.027 132.065L400.466 131.218L401.631 129.995L402.11 129.046L402.165 127.297L403.118 125.227L402.432 124.011L401.583 123.642L400.411 123.957L399.561 123.745L397.752 122.795L396.265 117.235L395.525 116.067L394.675 115.8L397.437 115.91L397.807 115.165L399.136 111.353L398.177 108.443H397.752L396.854 110.137L395.36 111.251L392.126 111.886L385.397 111.039L382.793 112.781L381.518 112.467L380.613 111.462L379.921 111.251L375.09 112.043L370.944 111.988L369.354 109.871L368.875 109.768L367.758 110.827L366.798 110.663L366.853 109.447L367.97 106.134L367.758 105.554L366.113 104.604L365.948 104.017L366.428 102.91L367.648 102.111L368.08 101.373L367.915 99.7812L367.436 98.8795L366.695 98.1896L365.476 97.7661L364.413 98.4082L363.824 99.3031L360.268 99.6788L356.334 99.0913L355.375 99.467L355.162 98.4082L355.484 97.3425L355.059 95.3888L356.019 93.3737L356.546 93.0526L357.766 93.3737L361.117 93.2644L361.857 92.8408L362.234 92.1031L362.282 90.6207L363.612 89.7737L363.879 89.0291L363.557 87.7585L363.242 87.5467L362.234 88.2913L361.597 88.0796L361.172 87.1232L358.726 86.4333L357.876 85.4291L355.806 84.7391L355.114 84.1038L354.635 84.0014L353.73 84.582L351.873 84.3156L350.913 83.735L350.543 82.8879L347.515 82.4644L346.72 82.7786L343.581 81.2484L342.156 80.9H340.881L339.983 81.9042L338.284 81.8564L336.05 82.7513L333.98 82.2253L333.926 81.6446L335.303 79.2606L336.262 79.2059L336.742 78.5706L336.954 77.3547L338.017 75.1824V74.2807L337.749 73.8572L334.83 72.7437V70.8925L332.116 69.1437L332.281 67.716L331.109 64.6966L330.842 62.8386L331.054 61.6773L330.575 61.4109L331.212 57.8109L330.739 57.3327L327.23 56.9092L326.696 57.1209L326.113 59.0268L321.967 59.5596L321.81 58.7126L320.645 58.5008L320.535 57.0116L319.315 57.1756L318.356 56.0621L315.327 55.0579L314.135 53.7737L316.657 51.9498L317.671 49.6204L318.294 49.0739H319.309L320.241 48.302L322.653 48.22L322.735 46.8265L322.344 45.269L322.735 44.4151L324.291 44.6542L326.004 45.4261L327.792 45.0367L330.437 45.1187L330.986 44.497L334.097 43.9506L334.878 43.3289L336.201 43.0215H338.462L339.552 43.486L340.559 43.1786L341.265 42.7141L341.498 40.9244L343.211 40.1525L344.451 38.7521L348.967 35.883L350.297 34.4826L352.01 34.7149L353.1 34.1752L354.963 33.943L355.046 32.3855L356.368 32.4674L357.067 33.0891L358.465 32.7748L360.884 33.1642L362.125 32.6246L363.762 32.8568L365.551 32.0781L368.902 32.5426L370.067 32.3855L373.185 30.9919L375.207 31.2242L375.672 30.6777L376.687 30.3703L383.93 29.4413L385.794 29.7487L386.575 29.3593L387.589 26.1008L389.769 24.1608L391.639 23.6963L392.222 22.8014L392.804 23.2864H396.21L398.917 23.71L400.438 22.8561L404.358 21.9202L405.763 22.2276L407.798 21.8041L409.093 22.1525L409.758 22.8561L413.637 23.0132L417.783 23.7509L419.777 23.4026L422.874 25.2333L424.149 25.1172L426.027 25.8959L426.808 25.8618L427.959 27.3031L428.651 27.4602L430.919 26.5585L433.4 27.5012L434.305 27.6174L436.066 27.187L437.436 27.4602L439.067 26.8318L439.335 26.012L442.124 26.135L446.777 27.3646L447.914 26.7771L448.771 25.4109L449.278 25.2948L450.58 25.9779L454.849 24.6868L457.117 26.6815L458.324 26.8523L459.071 27.7881L460.283 27.713L461.62 28.4371L462.757 30.0356L464.745 29.9399L465.334 29.5847L466.595 30.1107L467.924 30.0356L468.938 31.1285L470.933 30.7187L475.702 32.5494L480.115 32.7065L481.76 33.5263L484.501 32.2762L488.256 31.149L489.003 31.2242L489.024 32.0644L488.01 34.0181L488.53 36.7642L489.572 38.875L491.95 41.908L493.759 42.7756L494.581 44.0667L496.514 44.217L496.946 44.5722L497.028 45.3919L500.214 48.5547L500.996 50.0712L502.284 51.3623L503.655 52.0659L504.47 53.5893L510.117 53.9376L511.994 52.4553L521.499 54.9896L524.83 54.8735L526.118 55.1877L526.646 55.6932L527.194 58.3847L528.722 59.7919L529.366 61.0762L532.148 61.6636L532.95 63.105L534.711 64.0409L534.841 65.168L534.396 66.0765L536.315 68.8431L536.589 69.8951L537.178 70.1342L538.021 69.1984L538.61 69.1164L540.173 69.5467L541.365 70.5577L541.913 74.6564L541.249 77.6211L542.811 79.8071L542.599 80.4765H541.125L539.823 79.9642L539.076 80.2033L538.514 80.8864L536.041 81.5832L530.092 80.8864L527.975 81.1596L524.919 81.0025L522.26 81.6651L520.848 82.56L520.622 85.0602L519.704 85.9209L518.484 89.5209L517.6 90.368L516.935 92.1236L515.798 93.1346L515.249 94.774L512.906 97.1171L509.534 97.9368L504.991 97.5748L503.374 97.8959L502.49 97.0693L503.435 96.7687L503.154 96.3589L503.785 96.0788L503.62 95.6416L504.155 95.0336L503.305 93.8313L500.845 93.5649L498.81 94.5828L497.247 96.5296L496.151 96.6868L495.253 96.2564L494.54 96.6116L491.683 99.4943L491.573 100.007L490.86 100.28L490.627 100.861L489.73 101.448L487.722 101.257L485.776 101.68L484.015 103.402L480.883 104.495L480.369 105.663L477.511 106.011L476.024 106.831L474.777 108.238L474.811 108.566L474.229 108.71L473.441 109.68L472.31 110.076L471.371 111.244H470.583L470.624 111.517L469.466 112.105L467.65 112.064L467.493 112.412L465.533 112.61L464.56 113.157L463.929 115.5L462.99 115.923L461.894 117.836L459.427 118.075L457.666 117.563L457.042 117.918L456.22 119.557L454.849 120.493L452.108 121.702L449.408 122.051L448.976 123.11L448.935 125.097L449.874 126.19L450.073 128.882L449.052 129.503L448.778 131.184L446.708 131.416L444.2 134.114L443.179 134.661L441.527 139.62Z"/>
</mask>
<path d="M441.527 139.62L440.26 139.32L438.93 138.261L438.348 137.359L438.026 135.877L438.663 134.128L437.813 134.073L437.498 133.65L434.524 134.073L434.044 134.654L431.598 135.556L429.316 137.093L427.616 136.779L423.895 135.242L422.196 135.453L418.845 134.975L418.262 135.344L415.076 135.72L413.267 134.073V131.799L414.116 130.795L412.527 130.262L411.622 129.517L404.714 130.897L399.616 133.336L399.136 133.124L399.027 132.065L400.466 131.218L401.631 129.995L402.11 129.046L402.165 127.297L403.118 125.227L402.432 124.011L401.583 123.642L400.411 123.957L399.561 123.745L397.752 122.795L396.265 117.235L395.525 116.067L394.675 115.8L397.437 115.91L397.807 115.165L399.136 111.353L398.177 108.443H397.752L396.854 110.137L395.36 111.251L392.126 111.886L385.397 111.039L382.793 112.781L381.518 112.467L380.613 111.462L379.921 111.251L375.09 112.043L370.944 111.988L369.354 109.871L368.875 109.768L367.758 110.827L366.798 110.663L366.853 109.447L367.97 106.134L367.758 105.554L366.113 104.604L365.948 104.017L366.428 102.91L367.648 102.111L368.08 101.373L367.915 99.7812L367.436 98.8795L366.695 98.1896L365.476 97.7661L364.413 98.4082L363.824 99.3031L360.268 99.6788L356.334 99.0913L355.375 99.467L355.162 98.4082L355.484 97.3425L355.059 95.3888L356.019 93.3737L356.546 93.0526L357.766 93.3737L361.117 93.2644L361.857 92.8408L362.234 92.1031L362.282 90.6207L363.612 89.7737L363.879 89.0291L363.557 87.7585L363.242 87.5467L362.234 88.2913L361.597 88.0796L361.172 87.1232L358.726 86.4333L357.876 85.4291L355.806 84.7391L355.114 84.1038L354.635 84.0014L353.73 84.582L351.873 84.3156L350.913 83.735L350.543 82.8879L347.515 82.4644L346.72 82.7786L343.581 81.2484L342.156 80.9H340.881L339.983 81.9042L338.284 81.8564L336.05 82.7513L333.98 82.2253L333.926 81.6446L335.303 79.2606L336.262 79.2059L336.742 78.5706L336.954 77.3547L338.017 75.1824V74.2807L337.749 73.8572L334.83 72.7437V70.8925L332.116 69.1437L332.281 67.716L331.109 64.6966L330.842 62.8386L331.054 61.6773L330.575 61.4109L331.212 57.8109L330.739 57.3327L327.23 56.9092L326.696 57.1209L326.113 59.0268L321.967 59.5596L321.81 58.7126L320.645 58.5008L320.535 57.0116L319.315 57.1756L318.356 56.0621L315.327 55.0579L314.135 53.7737L316.657 51.9498L317.671 49.6204L318.294 49.0739H319.309L320.241 48.302L322.653 48.22L322.735 46.8265L322.344 45.269L322.735 44.4151L324.291 44.6542L326.004 45.4261L327.792 45.0367L330.437 45.1187L330.986 44.497L334.097 43.9506L334.878 43.3289L336.201 43.0215H338.462L339.552 43.486L340.559 43.1786L341.265 42.7141L341.498 40.9244L343.211 40.1525L344.451 38.7521L348.967 35.883L350.297 34.4826L352.01 34.7149L353.1 34.1752L354.963 33.943L355.046 32.3855L356.368 32.4674L357.067 33.0891L358.465 32.7748L360.884 33.1642L362.125 32.6246L363.762 32.8568L365.551 32.0781L368.902 32.5426L370.067 32.3855L373.185 30.9919L375.207 31.2242L375.672 30.6777L376.687 30.3703L383.93 29.4413L385.794 29.7487L386.575 29.3593L387.589 26.1008L389.769 24.1608L391.639 23.6963L392.222 22.8014L392.804 23.2864H396.21L398.917 23.71L400.438 22.8561L404.358 21.9202L405.763 22.2276L407.798 21.8041L409.093 22.1525L409.758 22.8561L413.637 23.0132L417.783 23.7509L419.777 23.4026L422.874 25.2333L424.149 25.1172L426.027 25.8959L426.808 25.8618L427.959 27.3031L428.651 27.4602L430.919 26.5585L433.4 27.5012L434.305 27.6174L436.066 27.187L437.436 27.4602L439.067 26.8318L439.335 26.012L442.124 26.135L446.777 27.3646L447.914 26.7771L448.771 25.4109L449.278 25.2948L450.58 25.9779L454.849 24.6868L457.117 26.6815L458.324 26.8523L459.071 27.7881L460.283 27.713L461.62 28.4371L462.757 30.0356L464.745 29.9399L465.334 29.5847L466.595 30.1107L467.924 30.0356L468.938 31.1285L470.933 30.7187L475.702 32.5494L480.115 32.7065L481.76 33.5263L484.501 32.2762L488.256 31.149L489.003 31.2242L489.024 32.0644L488.01 34.0181L488.53 36.7642L489.572 38.875L491.95 41.908L493.759 42.7756L494.581 44.0667L496.514 44.217L496.946 44.5722L497.028 45.3919L500.214 48.5547L500.996 50.0712L502.284 51.3623L503.655 52.0659L504.47 53.5893L510.117 53.9376L511.994 52.4553L521.499 54.9896L524.83 54.8735L526.118 55.1877L526.646 55.6932L527.194 58.3847L528.722 59.7919L529.366 61.0762L532.148 61.6636L532.95 63.105L534.711 64.0409L534.841 65.168L534.396 66.0765L536.315 68.8431L536.589 69.8951L537.178 70.1342L538.021 69.1984L538.61 69.1164L540.173 69.5467L541.365 70.5577L541.913 74.6564L541.249 77.6211L542.811 79.8071L542.599 80.4765H541.125L539.823 79.9642L539.076 80.2033L538.514 80.8864L536.041 81.5832L530.092 80.8864L527.975 81.1596L524.919 81.0025L522.26 81.6651L520.848 82.56L520.622 85.0602L519.704 85.9209L518.484 89.5209L517.6 90.368L516.935 92.1236L515.798 93.1346L515.249 94.774L512.906 97.1171L509.534 97.9368L504.991 97.5748L503.374 97.8959L502.49 97.0693L503.435 96.7687L503.154 96.3589L503.785 96.0788L503.62 95.6416L504.155 95.0336L503.305 93.8313L500.845 93.5649L498.81 94.5828L497.247 96.5296L496.151 96.6868L495.253 96.2564L494.54 96.6116L491.683 99.4943L491.573 100.007L490.86 100.28L490.627 100.861L489.73 101.448L487.722 101.257L485.776 101.68L484.015 103.402L480.883 104.495L480.369 105.663L477.511 106.011L476.024 106.831L474.777 108.238L474.811 108.566L474.229 108.71L473.441 109.68L472.31 110.076L471.371 111.244H470.583L470.624 111.517L469.466 112.105L467.65 112.064L467.493 112.412L465.533 112.61L464.56 113.157L463.929 115.5L462.99 115.923L461.894 117.836L459.427 118.075L457.666 117.563L457.042 117.918L456.22 119.557L454.849 120.493L452.108 121.702L449.408 122.051L448.976 123.11L448.935 125.097L449.874 126.19L450.073 128.882L449.052 129.503L448.778 131.184L446.708 131.416L444.2 134.114L443.179 134.661L441.527 139.62Z" fill="#E5EBEF" stroke="#E5EBEF" stroke-width="2" mask="url(#path-7-inside-7_167_8)"/>
</g>
<defs>
<clipPath id="clip0_167_8">
<rect width="543" height="266" fill="white"/>
</clipPath>
</defs>
</svg>
