<svg width="1160" height="645" viewBox="0 0 1160 645" fill="none" xmlns="http://www.w3.org/2000/svg">
<path fill-rule="evenodd" clip-rule="evenodd" d="M338.996 57.894C299.275 127.053 246.882 218.008 222.567 260.02C198.257 302.032 143.29 397.513 100.418 472.2C57.5525 546.888 17.4191 616.325 11.2412 626.498L0 645L120.666 643.473L241.327 641.945L256.392 591.021C264.681 563.014 298.721 452.255 332.043 344.892C365.365 237.529 397.742 131.224 403.988 108.665C410.239 86.1056 417.187 67.6431 419.427 67.6431C421.673 67.6431 452.568 98.5704 488.085 136.372C597.102 252.41 607.365 263.041 604.757 257.191C603.365 254.079 572.153 199.336 535.392 135.541C498.624 71.7453 457.405 -0.181084 443.793 -24.3018C430.176 -48.4224 417.277 -68.0846 415.127 -67.9997C412.983 -67.9149 378.722 -11.2599 338.996 57.894ZM728.982 131.478C698.5 185.061 663.995 245.45 652.307 265.678C640.619 285.906 601.063 354.652 564.408 418.448C527.754 482.244 492.068 543.352 485.103 554.244C468.244 580.616 436.682 637.667 436.682 641.769C436.682 643.563 481.471 644.338 536.212 643.49L635.737 641.945L662.983 554.244C677.964 506.008 710.963 399.069 736.314 316.601C761.659 234.134 784.288 161.874 786.602 156.029C790.121 147.129 803.184 158.756 866.909 227.508C908.768 272.666 943.758 308.963 944.658 308.165C945.563 307.367 929.259 277.747 908.422 242.344C887.592 206.941 852.935 147.423 831.403 110.079C809.871 72.7354 790.489 40.3538 788.328 38.1188C786.172 35.8838 759.464 77.8956 728.982 131.478ZM1042.26 238.802C1035.02 252.025 1017.06 283.218 1002.34 308.114C955.062 388.069 828.806 607.396 819.268 626.136L810.035 644.282L878.914 643.11L947.798 641.945L966.037 582.534C1017.74 414.142 1054.82 296.278 1057.46 291.943C1059.08 289.278 1065.82 293.386 1072.44 301.075C1092.62 324.562 1163.36 398.848 1159.88 392.907C1158.08 389.841 1134.45 348.502 1107.35 301.042C1080.25 253.581 1057.48 214.755 1056.75 214.755C1056.02 214.755 1049.5 225.579 1042.26 238.802Z" fill="#ECECEC" fill-opacity="0.4"/>
</svg>
