<svg width="516" height="368" viewBox="0 0 516 368" fill="none" xmlns="http://www.w3.org/2000/svg">
<path fill-rule="evenodd" clip-rule="evenodd" d="M285.931 6.90255C268.546 15.5049 256.408 34.6779 256.408 53.536C256.408 95.5563 322.206 113.962 339.813 76.8673C345.308 65.2906 343.78 49.3048 336.397 41.1516C329.632 33.6806 313.505 28.9071 302.893 31.237C291.362 33.7681 283.113 49.3165 287.211 60.7941C290.286 69.3993 300.017 74.2837 306.256 70.35C309.736 68.16 309.561 66.3258 305.142 58.4962C301.924 52.8012 300.953 48.1938 302.616 46.5317C311.069 38.081 331.849 55.1253 327.976 67.3289C325.461 75.2431 312.046 82.2271 299.357 82.2271C286.036 82.2271 276.541 71.8401 274.87 55.4344C270.57 13.1925 332.217 0.344355 350.85 39.5973C357.364 53.3232 356.78 66.9615 349.021 82.3145C340.419 99.3355 326.581 108.472 309.403 108.472C290.566 108.472 275.284 99.9771 242.646 71.3589C226.953 57.5981 208.862 43.9451 202.445 41.0203C167.187 24.9412 129.856 46.3975 129.856 82.7403C129.856 104.996 144.864 120.363 167.222 120.996C188.782 121.608 203.903 107.996 203.903 87.9804C203.903 75.8613 190.141 61.8147 178.269 61.8147C161.254 61.8147 147.898 80.4774 157.815 90.392C163.107 95.6817 165.405 94.7194 170.358 85.1431C175.55 75.1061 181.924 73.8638 186.299 82.0346C197.15 102.307 172.546 117.602 153.358 102.514C137.327 89.905 141.55 64.235 161.19 54.9182C173.987 48.847 184.307 48.882 197.293 55.0436C209.238 60.7095 219.771 80.4774 216.913 91.8646C215.95 95.6905 206.654 109.014 196.249 121.474C183.578 136.649 177.624 146.176 178.219 150.328C179.526 159.429 188.216 159.602 200.954 150.778C215.723 140.545 222.837 143.814 225.579 162.098C227.831 177.104 233.035 182.702 242.06 179.839C247.891 177.99 248.267 176.477 246.657 161.374C245.694 152.326 244.113 139.673 243.142 133.258C240.916 118.538 247.616 107.116 254.261 114.304C256.487 116.709 261.994 127.604 266.501 138.513C283.06 178.6 307.86 195.285 329.332 180.787C337.867 175.022 339.687 171.901 340.431 161.754C341.869 142.126 325.126 130.861 310.456 141.583C303.155 146.923 306.542 154.475 316.763 155.647C328.404 156.983 328.334 167.863 316.678 169.198C296.741 171.479 290.691 149.433 306.825 133.305C322.798 117.336 361.818 113.018 397.65 123.25C408.979 126.487 425.591 140.105 425.591 146.156C425.591 152.198 403.478 171.251 385.244 180.921C359.041 194.819 332.911 198.647 263.435 198.767C220.13 198.843 201.091 200.003 190.511 203.211C173.217 208.457 164.755 208.719 157.579 204.24C148.732 198.717 141.859 203.229 144.035 213.134C145.482 219.722 143.7 225.006 135.909 237.195C130.419 245.785 121.14 262.331 115.292 273.957C105.823 292.775 103.738 295.099 96.3316 295.099C85.4485 295.099 75.5046 303.211 60.9344 323.976C46.2709 344.873 39.1711 348.99 21.8706 346.62C12.0755 345.278 7.58924 345.966 4.226 349.329C-5.59246 359.144 2.38538 368 21.0451 368C36.9542 368 49.6167 361.069 73.7515 339.154C97.8689 317.255 97.7055 317.342 122.955 312.857C132.394 311.181 151.214 303.911 166.021 296.221C196.657 280.309 211.079 278.089 285.68 277.786C323.834 277.632 333.614 278.524 347.592 283.435C356.781 286.663 371.709 289.275 381.035 289.284C401.92 289.305 431.472 293.979 435.372 297.878C439.876 302.38 430.562 310.793 407.874 322.714C389.048 332.602 386.56 333.171 370.213 331.322C357.93 329.934 351.399 330.43 348.313 332.99C342.49 337.822 342.765 340.604 349.751 347.588C356.506 354.341 377.628 355.531 393.8 350.072C409.169 344.882 440.905 325.335 451.196 314.721C472.642 292.603 464.594 277.716 428.284 272.327C416.858 270.633 406.865 268.601 406.074 267.81C402.209 263.947 409.811 253.778 422.794 245.45C441.334 233.555 447.964 225.487 463.112 196.379L475.474 172.625H489.263C511.697 172.625 523.382 159.651 510.912 148.588C508.106 146.097 499.638 141.187 492.101 137.679C471.703 128.181 470.145 125.224 477.639 110.218C486.273 92.9377 485.905 76.2725 476.65 65.2761C467.26 54.1192 447.807 46.2488 435.384 48.5787C406.579 53.9793 402.052 99.7234 430.323 99.7234C445.249 99.7234 451.844 95.2239 451.844 85.041C451.844 74.6162 445.689 73.5576 439.473 82.9152C435.734 88.549 434.491 88.8961 430.366 85.4755C420.026 76.8965 428.459 58.8986 442.819 58.8986C446.424 58.8986 453.212 62.7333 457.902 67.4223C469.13 78.6461 469.217 90.6807 458.159 103.051C448.195 114.202 437.493 114.843 418.098 105.459C403.472 98.3791 394.047 86.2045 377.552 53.0665C353.936 5.62533 321.52 -10.7075 285.931 6.90255ZM328.69 9.15374C345.375 13.6445 358.738 28.4901 375.557 61.2257C391.136 91.5409 403.323 105.185 421.68 112.851C438.429 119.847 450.998 118.514 460.819 108.696C468.261 101.257 469.357 98.0087 469.439 83.1806C469.524 67.606 469.888 66.6612 473.814 71.8488C479.844 79.8213 479.135 95.0081 472.082 108.824C466.577 119.611 466.446 121.188 470.542 127.435C473.001 131.188 481.929 137.967 490.383 142.505C513.826 155.087 512.703 166.655 488.029 166.749C473.817 166.801 471.178 169.411 456.275 198.117C445.876 218.147 437.285 227.706 412.894 246.38C401.859 254.828 398.884 265.364 405.902 271.143C407.909 272.797 417.1 275.538 426.332 277.235C449.385 281.478 454.761 284.828 454.761 294.953C454.761 318.071 373.264 360.596 358.07 345.406C352.072 339.411 358.939 335.923 376.905 335.842C391.629 335.775 398.155 334.025 412.252 326.365C431.39 315.963 441.468 304.777 438.551 297.172C436.095 290.78 421.901 287.348 387.694 284.884C372.468 283.784 354.091 280.854 346.857 278.366C336.26 274.724 320.692 273.954 266.617 274.395L199.528 274.943L165.927 290.853C147.448 299.604 130.778 306.763 128.879 306.763C113.197 306.763 94.4502 314.31 80.6006 326.201C72.2114 333.404 62.7721 340.7 59.6218 342.417C53.9804 345.497 53.9775 345.418 59.3359 337.087C78.0249 308.04 85.7402 300.931 98.5777 300.931C105.363 300.931 110.989 294.358 120.572 275.246C124.839 266.734 133.52 251.294 139.864 240.933C146.209 230.572 151.398 219.433 151.398 216.182C151.398 211.073 152.705 210.513 161.015 212.073C166.878 213.172 179.876 211.516 194.315 207.83C214.562 202.663 226.845 201.785 278.889 201.785C346.577 201.785 361.941 199.318 391.133 183.764C409.968 173.727 428.508 155.289 428.508 146.596C428.508 136.541 414.431 123.428 398.589 118.724C379.699 113.117 332.599 112.846 319.758 118.269C290.207 130.756 282.325 160.316 305.311 172.45C315.611 177.885 315.786 178.206 308.522 178.328C297.858 178.506 282.535 160.785 270.112 133.908C260.279 112.63 254.684 107.078 246.31 110.291C239.598 112.866 238.256 121.515 240.461 148.001C241.669 162.5 241.412 172.625 239.834 172.625C235.176 172.625 230.156 165.854 230.156 159.569C230.156 142.788 214.229 135.844 197.88 145.497C179.85 156.146 183.674 143.525 206.846 115.907C219.068 101.339 221.402 96.6586 221.393 86.7469C221.387 80.0954 218.841 70.767 215.559 65.3898C212.356 60.138 209.737 55.1719 209.737 54.3525C209.737 50.7541 223.321 60.7503 243.81 79.4218C288.748 120.372 320.129 125.309 346.276 95.5359C370.096 68.4195 363.221 31.3041 331.464 15.5545C317.346 8.55012 309.853 8.79215 286.683 16.9921C282.471 18.4822 281.961 18.1089 284.484 15.3678C288.745 10.7401 309.362 3.39454 313.834 4.91089C315.742 5.55825 322.425 7.46535 328.69 9.15374ZM273.784 32.8875C271.57 37.0254 270.824 46.3363 271.769 58.0822C273.195 75.8788 273.029 76.5028 268.015 71.9655C265.13 69.3556 261.971 64.0455 260.997 60.1671C259.264 53.259 264.99 35.5119 271.471 27.7057C276.302 21.8823 277.836 25.3174 273.784 32.8875ZM184.269 43.3153C182.294 44.1143 178.356 44.1638 175.518 43.4232C172.68 42.6825 174.296 42.0293 179.109 41.971C183.922 41.9127 186.244 42.5163 184.269 43.3153ZM338.083 63.6052C338.083 71.6768 325.715 86.7994 317.317 88.9952C312.545 90.2433 313.659 88.2574 322.043 80.5824C332.223 71.2598 332.894 69.6414 331.374 58.1551C329.886 46.9049 330.117 46.2926 333.909 51.4365C336.204 54.5508 338.083 60.0272 338.083 63.6052ZM296.321 56.5308C295.39 58.8549 294.699 58.1638 294.559 54.7666C294.434 51.6931 295.122 49.9726 296.09 50.9407C297.059 51.9089 297.164 54.4254 296.321 56.5308ZM331.665 149.879C333.591 151.804 335.081 156.723 334.982 160.815L334.795 168.251L331.986 161.226C330.44 157.362 326.914 152.481 324.148 150.384C319.881 147.141 319.805 146.552 323.644 146.473C326.132 146.421 329.74 147.955 331.665 149.879ZM40.3787 357.065C33.3459 362.757 12.8631 364.002 9.72444 358.925C6.61205 353.895 12.2972 351.962 30.2131 351.962C46.3555 351.962 46.5568 352.064 40.3787 357.065Z" fill="#E5EBEF"/>
</svg>
